<svg width="375" height="208" viewBox="0 0 375 208" fill="none" xmlns="http://www.w3.org/2000/svg">
<path d="M375 189.776C348.282 197.245 291.79 208 188 208C82.897 208 26.2959 196.971 0 189.494L0 0H375V189.776Z" fill="url(#paint0_linear_28689_18429)"/>
<mask id="mask0_28689_18429" style="mask-type:alpha" maskUnits="userSpaceOnUse" x="0" y="0" width="375" height="208">
<path d="M375 189.776C348.282 197.245 291.79 208 188 208C82.897 208 26.2959 196.971 0 189.494L0 0H375V189.776Z" fill="url(#paint1_linear_28689_18429)"/>
</mask>
<g mask="url(#mask0_28689_18429)">
<path opacity="0.1" d="M-105 114C-105 172.542 -57.5422 220 1 220C59.5422 220 107 172.542 107 114C107 55.4578 59.5422 8 1 8C-57.5422 8 -105 55.4578 -105 114ZM85.8 114C85.8 160.834 47.8337 198.8 1 198.8C-45.8337 198.8 -83.8 160.834 -83.8 114C-83.8 67.1663 -45.8337 29.2 1 29.2C47.8337 29.2 85.8 67.1663 85.8 114Z" fill="url(#paint2_linear_28689_18429)"/>
<path opacity="0.1" d="M9 71.5C9 106.57 37.4299 135 72.5 135C107.57 135 136 106.57 136 71.5C136 36.4299 107.57 8 72.5 8C37.4299 8 9 36.4299 9 71.5ZM123.3 71.5C123.3 99.5561 100.556 122.3 72.5 122.3C44.4439 122.3 21.7 99.5561 21.7 71.5C21.7 43.4439 44.4439 20.7 72.5 20.7C100.556 20.7 123.3 43.4439 123.3 71.5Z" fill="url(#paint3_linear_28689_18429)"/>
<path opacity="0.1" d="M162 43.5C162 66.9721 142.972 86 119.5 86C96.0279 86 77 66.9721 77 43.5C77 20.0279 96.0279 1 119.5 1C142.972 1 162 20.0279 162 43.5ZM85.5 43.5C85.5 62.2777 100.722 77.5 119.5 77.5C138.278 77.5 153.5 62.2777 153.5 43.5C153.5 24.7223 138.278 9.5 119.5 9.5C100.722 9.5 85.5 24.7223 85.5 43.5Z" fill="url(#paint4_linear_28689_18429)"/>
</g>
<defs>
<linearGradient id="paint0_linear_28689_18429" x1="-29.5002" y1="-96.0712" x2="220.544" y2="314.953" gradientUnits="userSpaceOnUse">
<stop stop-color="#2E83E7"/>
<stop offset="1" stop-color="#0C4DA1"/>
<stop offset="1" stop-color="#2A7C76"/>
</linearGradient>
<linearGradient id="paint1_linear_28689_18429" x1="-29.5002" y1="-96.0712" x2="220.544" y2="314.953" gradientUnits="userSpaceOnUse">
<stop stop-color="#2E83E7"/>
<stop offset="1" stop-color="#0C4DA1"/>
<stop offset="1" stop-color="#2A7C76"/>
</linearGradient>
<linearGradient id="paint2_linear_28689_18429" x1="80.5" y1="10.4091" x2="-147.159" y2="238.068" gradientUnits="userSpaceOnUse">
<stop stop-color="white" stop-opacity="0"/>
<stop offset="1" stop-color="white" stop-opacity="0.7"/>
</linearGradient>
<linearGradient id="paint3_linear_28689_18429" x1="120.125" y1="9.44317" x2="-16.2557" y2="145.824" gradientUnits="userSpaceOnUse">
<stop stop-color="white" stop-opacity="0"/>
<stop offset="1" stop-color="white" stop-opacity="0.7"/>
</linearGradient>
<linearGradient id="paint4_linear_28689_18429" x1="87.625" y1="1.9659" x2="178.903" y2="93.2443" gradientUnits="userSpaceOnUse">
<stop stop-color="white" stop-opacity="0"/>
<stop offset="1" stop-color="white" stop-opacity="0.7"/>
</linearGradient>
</defs>
</svg>
