<svg width="18" height="20" viewBox="0 0 18 20" fill="none" xmlns="http://www.w3.org/2000/svg">
<path fill-rule="evenodd" clip-rule="evenodd" d="M13.4109 0.75661L13.4119 1.49452C16.1665 1.70704 17.9862 3.55477 17.9891 6.38835L18 14.6825C18.0039 17.7719 16.0323 19.6727 12.8718 19.6777L5.15189 19.6875C2.0112 19.6914 0.0148232 17.7453 0.0108739 14.6471L1.32771e-05 6.45034C-0.00393604 3.59806 1.75153 1.75525 4.50618 1.50633L4.50519 0.768417C4.50421 0.335508 4.83002 0.00984331 5.26445 0.00984331C5.69887 0.00885943 6.02469 0.333541 6.02568 0.766449L6.02667 1.45517L11.8914 1.4473L11.8904 0.758578C11.8894 0.32567 12.2152 0.000988368 12.6497 4.48534e-06C13.0742 -0.000979397 13.4099 0.323702 13.4109 0.75661ZM1.52164 6.73775L16.4698 6.71808V6.37372C16.4273 4.25837 15.3492 3.14855 13.414 2.98326L13.415 3.74085C13.415 4.16392 13.0803 4.49942 12.6557 4.49942C12.2213 4.5004 11.8945 4.16588 11.8945 3.74281L11.8935 2.94587L6.0288 2.95374L6.02978 3.7497C6.02978 4.17376 5.70495 4.50828 5.27053 4.50828C4.8361 4.50926 4.5093 4.17572 4.5093 3.75167L4.50831 2.99408C2.58302 3.18397 1.51769 4.29772 1.52065 6.43177L1.52164 6.73775ZM12.2391 11.1897V11.2005C12.249 11.6531 12.6242 11.9965 13.0793 11.9866C13.5236 11.9758 13.8781 11.6009 13.8682 11.1484C13.8475 10.7154 13.491 10.3622 13.0477 10.3632C12.5936 10.3731 12.2381 10.7371 12.2391 11.1897ZM13.0554 15.6227C12.6012 15.6129 12.235 15.24 12.234 14.7874C12.2241 14.3348 12.5884 13.96 13.0426 13.9491H13.0525C13.5165 13.9491 13.8927 14.322 13.8927 14.7845C13.8937 15.2469 13.5185 15.6217 13.0554 15.6227ZM8.17158 11.1997C8.19132 11.6522 8.56749 12.0055 9.02167 11.9858C9.46596 11.9651 9.82041 11.5912 9.80067 11.1387C9.78981 10.6959 9.4245 10.3516 8.9802 10.3525C8.52603 10.3722 8.17059 10.7471 8.17158 11.1997ZM9.02767 15.5824C8.5735 15.6021 8.19831 15.2489 8.17758 14.7963C8.17758 14.3437 8.53203 13.9698 8.9862 13.9492C9.4305 13.9482 9.7968 14.2925 9.80667 14.7343C9.8274 15.1879 9.47196 15.5617 9.02767 15.5824ZM4.10471 11.2637C4.12446 11.7163 4.50063 12.0705 4.9548 12.0498C5.3991 12.0301 5.75355 11.6553 5.73282 11.2027C5.72294 10.7599 5.35763 10.4156 4.91235 10.4166C4.45818 10.4363 4.10372 10.8111 4.10471 11.2637ZM4.95898 15.6035C4.50481 15.6241 4.12962 15.2699 4.10889 14.8173C4.1079 14.3648 4.46334 13.9899 4.91751 13.9702C5.36181 13.9692 5.72811 14.3136 5.73798 14.7563C5.75871 15.2089 5.40426 15.5838 4.95898 15.6035Z" fill="#F2F2F2"/>
</svg>
