<svg width="30" height="30" viewBox="0 0 30 30" fill="none" xmlns="http://www.w3.org/2000/svg">
<g opacity="0.9">
<path d="M15 6C19.9698 6 24 10.0302 24 15C24 19.9698 19.9698 24 15 24C10.0302 24 6 19.9698 6 15C6 10.0302 10.0302 6 15 6ZM14.919 17.732C14.6598 17.732 14.4491 17.8069 14.2892 17.9791C14.1028 18.1391 14.0158 18.3497 14.0158 18.6089C14.0158 18.856 14.1028 19.0666 14.2892 19.2408C14.4491 19.4129 14.6598 19.5 14.919 19.5C15.1681 19.5 15.3888 19.4129 15.5752 19.2529C15.7473 19.0788 15.8344 18.8702 15.8344 18.6089C15.8344 18.3497 15.7473 18.1391 15.5752 17.9791C15.403 17.8069 15.1802 17.732 14.919 17.732ZM15.1316 10.5C14.2284 10.5 13.5115 10.7592 12.993 11.2919C12.4604 11.8123 12.2012 12.5151 12.2012 13.4203V13.4406C12.2012 13.8031 12.4928 14.0968 12.8573 14.0968C13.2198 14.0968 13.5135 13.8031 13.5135 13.4406C13.5135 13.4325 13.5115 13.4203 13.5115 13.4203C13.5115 12.8756 13.6208 12.4442 13.8436 12.1465C14.0907 11.8002 14.4977 11.626 15.0567 11.626C15.5002 11.626 15.8486 11.7495 16.0936 11.9966C16.3285 12.2437 16.4541 12.5779 16.4541 13.0113C16.4541 13.3333 16.3407 13.6289 16.1179 13.9145L15.9073 14.1494C15.1418 14.8299 14.6861 15.3443 14.4977 15.6825C14.2183 16.1868 14.2689 16.6546 14.2689 16.6546C14.2689 17.0171 14.5646 17.3108 14.9251 17.3108C15.2876 17.3108 15.5286 17.0617 15.5812 16.6546C15.5812 16.6546 15.6481 16.2759 15.7858 16.0288C15.8972 15.8081 16.0713 15.5954 16.2921 15.399C16.8875 14.8906 17.2318 14.5707 17.3432 14.4329C17.6409 14.038 17.8009 13.5297 17.8009 12.9262C17.8009 12.185 17.5538 11.5916 17.0738 11.1582C16.5756 10.7106 15.9336 10.5 15.1316 10.5Z" fill="white"/>
</g>
</svg>
