<svg width="12" height="12" viewBox="0 0 12 12" fill="none" xmlns="http://www.w3.org/2000/svg">
<path fill-rule="evenodd" clip-rule="evenodd" d="M12 6C12 9.32727 9.32727 12 6 12C2.67273 12 0 9.32727 0 6C0 2.67273 2.67273 0 6 0C9.32727 0 12 2.67273 12 6ZM7.54278 3.9211C7.85133 3.9211 8.08275 4.15252 8.08275 4.46107L8.08275 7.54663C8.08275 7.62377 8.08275 7.70091 8.04418 7.73948C8.04418 7.81661 7.96704 7.89375 7.92847 7.93232C7.8899 7.97089 7.81276 8.04803 7.73562 8.04803C7.69706 8.0866 7.61992 8.0866 7.54278 8.0866H4.45722C4.14867 8.0866 3.91725 7.85518 3.91725 7.54663C3.91725 7.23807 4.14867 7.00666 4.45722 7.00666L6.23142 7.00666L4.07153 4.84677C3.84011 4.61535 3.84011 4.30679 4.07153 4.07538C4.30295 3.84396 4.6115 3.84396 4.84292 4.07538L7.00281 6.23527L7.00281 4.46107C7.00281 4.15252 7.23422 3.9211 7.54278 3.9211Z" fill="#4FA30F"/>
</svg>
