<svg width="30" height="30" viewBox="0 0 30 30" fill="none" xmlns="http://www.w3.org/2000/svg">
<path fill-rule="evenodd" clip-rule="evenodd" d="M21.0443 7.29372C20.0781 6.3245 18.5133 6.32452 17.5472 7.29378L16.5294 8.31592L21.6939 13.5026L22.7072 12.4849C23.6746 11.5144 23.6753 9.93608 22.7072 8.9638L21.0443 7.29372C21.0443 7.2937 21.0443 7.29374 21.0443 7.29372ZM20.5884 14.6129L15.4239 9.42621L7.33481 17.5501C6.93828 17.9483 6.70923 18.4847 6.69504 19.048L6.58646 23.4332H10.9027C11.4808 23.4332 12.0356 23.2024 12.4453 22.7909L20.5884 14.6129ZM16.4375 6.18766C18.016 4.60411 20.5756 4.60411 22.154 6.18766L23.8175 7.85827C25.394 9.44156 25.3944 12.0084 23.8172 13.5908L13.5556 23.8965C12.8529 24.6022 11.899 25 10.9027 25H5.78341C5.57227 25 5.37008 24.9148 5.22264 24.7636C5.07521 24.6125 4.99501 24.4083 5.00024 24.1972L5.1287 19.0092C5.15284 18.0464 5.54423 17.1278 6.22453 16.4445L16.4375 6.18766Z" fill="white"/>
</svg>
