<svg width="175" height="94" viewBox="0 0 175 94" fill="none" xmlns="http://www.w3.org/2000/svg">
<path d="M34.4985 75.1365C30.7719 73.4505 26.7313 68.9274 27.8766 64.6718C28.4495 64.5252 29.0522 64.7588 29.3766 65.2532C29.3766 65.2532 35.8414 75.3516 34.0275 66.0613C33.1729 61.6952 31.7021 57.4744 31.5858 52.9629C31.3939 44.7656 38.9169 42.4924 41.0796 51.5502C41.3645 52.7478 42.4574 62.4858 44.9457 61.3696C45.2662 61.201 45.5263 60.9369 45.6899 60.6138C46.9514 58.5441 47.3293 55.5035 49.6432 54.8001C51.6722 54.1606 53.6721 55.9221 54.7651 57.7418C56.9801 61.4394 59.9451 70.6309 55.4104 73.747C50.8757 76.8632 39.4343 77.3573 34.5392 75.1772L34.4985 75.1365Z" fill="url(#paint0_linear_22335_73120)"/>
<path d="M128.646 84.9672C127.007 81.2174 127.047 75.1537 130.768 72.7584C131.294 73.0411 131.578 73.6302 131.472 74.2177C131.472 74.2177 129.489 86.0486 134.378 77.9385C136.704 74.1188 138.448 70.0085 141.355 66.5843C146.698 60.3403 153.819 63.7297 149.349 71.898C148.767 72.9793 143.035 80.9325 145.628 81.7813C145.979 81.8677 146.348 81.8454 146.686 81.7174C149.012 81.0314 151.337 79.0314 153.535 80.043C155.465 80.9325 155.767 83.572 155.36 85.6591C154.523 89.8857 150.419 94.6122 144.966 93.8797C139.397 93.1239 130.809 89.9089 128.663 85.0079L128.646 84.9672Z" fill="url(#paint1_linear_22335_73120)"/>
<path d="M174.481 93.8805C152.558 78.8404 121.577 69.4629 87.2407 69.4629C52.9049 69.4629 21.9236 78.8404 0 93.8805H174.481Z" fill="url(#paint2_linear_22335_73120)"/>
<path d="M138.198 48.5332C136.809 50.2773 135.919 52.7482 136.75 54.9574C137.326 56.4806 139.059 56.4922 138.936 58.6084C138.817 59.665 138.455 60.6798 137.878 61.5734C136.896 63.2915 135.692 64.8728 134.297 66.2767C135.46 67.1837 136.051 68.6414 135.849 70.1021C135.621 71.552 134.935 72.8907 133.89 73.9217C133.583 74.2978 133.182 74.5865 132.727 74.7589C132.287 74.8605 131.83 74.8605 131.39 74.7589C129.227 74.3918 127.127 73.7204 125.152 72.7648C123.92 72.1776 122.664 71.3753 122.245 70.0963C121.766 68.6283 122.528 68.1619 123.361 67.7019L123.575 67.5832C124.005 67.3435 124.427 67.0829 124.681 66.6662C125.292 65.6662 125.309 64.3291 125.524 63.2129C125.838 61.5676 125.373 58.5677 127.431 57.9224C128.228 57.6724 129.094 57.7305 129.89 57.4747C131.621 56.924 132.337 55.2964 133.03 53.6507L133.156 53.3516C133.556 52.405 133.968 51.4738 134.582 50.7599C135.454 49.7425 137.617 49.2425 138.198 48.5332ZM133.175 58.2944C133.175 58.2944 126.914 65.5965 127.117 72.3462H129.14C129.14 72.3462 129.873 64.207 133.175 58.2944Z" fill="url(#paint3_linear_22335_73120)"/>
<path d="M49.0389 10.3642C49.0712 8.11062 47.4615 6.16739 45.2412 5.77975C43.021 5.3921 40.848 6.67491 40.1148 8.80616C38.7159 8.77874 37.4136 9.51722 36.7191 10.7318C36.0245 11.9464 36.0484 13.4432 36.7814 14.635C37.5144 15.8268 38.8396 16.5233 40.2369 16.4512H48.661C50.2604 16.4299 51.5732 15.1795 51.6723 13.5829C51.7714 11.9864 50.6234 10.5832 49.0389 10.3642Z" fill="url(#paint4_linear_22335_73120)"/>
<path d="M83.8571 5.74908V5.72001C83.8537 2.93451 81.8464 0.555513 79.1012 0.08339C76.356 -0.388733 73.6693 1.18298 72.7354 3.80729C70.0945 3.84904 67.9875 6.02375 68.0292 8.66466C68.071 11.3056 70.2457 13.4126 72.8866 13.3709H83.3513C85.3675 13.3745 87.0382 11.8081 87.1644 9.79588C87.2907 7.78363 85.8289 6.02077 83.828 5.77233L83.8571 5.74908Z" fill="url(#paint5_linear_22335_73120)"/>
<path d="M100.782 31.0781H111.492C111.639 31.0781 111.604 31.1847 111.707 31.2806C111.83 31.395 111.823 31.522 111.823 31.7097L112.548 46.6182H100.775V31.0825L100.782 31.0781Z" fill="url(#paint6_linear_22335_73120)"/>
<path d="M61.2187 34.0055V87.5881H94.8895C99.2947 87.5873 102.865 83.7471 102.865 79.0103V37.131C102.865 34.1411 104.537 31.5358 107.315 31.4484C108.688 31.403 109.548 31.9578 110.534 32.986C111.52 34.0142 112.077 35.4281 112.077 36.9051V34.0055C112.077 29.2682 109.447 25.4277 105.042 25.4277H69.196C64.7902 25.4277 61.2187 29.2682 61.2187 34.0055Z" fill="url(#paint7_linear_22335_73120)"/>
<path d="M97.901 82.6572C95.1228 82.5678 92.9826 79.9441 92.9826 76.9377V73.459H55.0967V79.7476C55.0967 84.0768 58.3382 87.5863 62.3368 87.5863H95.8909C99.889 87.5855 103.13 84.0762 103.13 79.7476V77.1591C103.131 78.6463 102.576 80.0708 101.591 81.107C100.605 82.1431 99.274 82.7025 97.901 82.6572Z" fill="url(#paint8_linear_22335_73120)"/>
<path d="M94.6533 36.2598H68.7531C68.233 36.2598 67.8113 36.6814 67.8113 37.2016V38.1434C67.8113 38.6636 68.233 39.0852 68.7531 39.0852H94.6533C95.1734 39.0852 95.5951 38.6636 95.5951 38.1434V37.2016C95.5951 36.6814 95.1734 36.2598 94.6533 36.2598Z" fill="white"/>
<path fill-rule="evenodd" clip-rule="evenodd" d="M85.1601 47.1289H66.6128C65.7221 47.1289 65 47.851 65 48.7417C65 49.6324 65.7221 50.3545 66.6128 50.3545H85.1601C86.0508 50.3545 86.7729 49.6324 86.7729 48.7417C86.7729 47.851 86.0508 47.1289 85.1601 47.1289ZM74.2736 55.1914H66.6128C65.7221 55.1914 65 55.9135 65 56.8042C65 57.6949 65.7221 58.417 66.6128 58.417H74.2736C75.1644 58.417 75.8864 57.6949 75.8864 56.8042C75.8864 55.9135 75.1644 55.1914 74.2736 55.1914ZM66.6128 63.2578H74.2736C75.1644 63.2578 75.8864 63.9799 75.8864 64.8706C75.8864 65.7613 75.1644 66.4834 74.2736 66.4834H66.6128C65.7221 66.4834 65 65.7613 65 64.8706C65 63.9799 65.7221 63.2578 66.6128 63.2578Z" fill="white"/>
<path fill-rule="evenodd" clip-rule="evenodd" d="M85.7211 58.2598C85.2892 57.8943 84.6418 57.9143 84.2335 58.3208C83.8024 58.75 83.8009 59.4473 84.23 59.8783L87.0541 62.715L84.2301 65.5517C83.8009 65.9828 83.8025 66.6801 84.2335 67.1092C84.6419 67.5157 85.2892 67.5357 85.7211 67.1702L85.791 67.1057L88.6082 64.276L91.4253 67.1057L91.4952 67.1702C91.9271 67.5357 92.5744 67.5157 92.9828 67.1092C93.4138 66.6801 93.4154 65.9828 92.9863 65.5517L90.1622 62.715L92.9863 59.8783C93.4154 59.4473 93.4139 58.75 92.9828 58.3208C92.5745 57.9143 91.9271 57.8943 91.4952 58.2598L91.4253 58.3243L88.6082 61.1541L85.791 58.3243L85.7211 58.2598Z" fill="white"/>
<defs>
<linearGradient id="paint0_linear_22335_73120" x1="13.5236" y1="-11.5655" x2="49.8037" y2="75.9366" gradientUnits="userSpaceOnUse">
<stop stop-color="#D2D2D2"/>
<stop offset="1" stop-color="#D2D2D2" stop-opacity="0"/>
</linearGradient>
<linearGradient id="paint1_linear_22335_73120" x1="160.82" y1="29.4394" x2="139.74" y2="79.0573" gradientUnits="userSpaceOnUse">
<stop stop-color="#D2D2D2"/>
<stop offset="1" stop-color="#D2D2D2" stop-opacity="0"/>
</linearGradient>
<linearGradient id="paint2_linear_22335_73120" x1="87.2407" y1="15.4616" x2="87.2407" y2="93.8805" gradientUnits="userSpaceOnUse">
<stop stop-color="#D2D2D2"/>
<stop offset="1" stop-color="#D2D2D2" stop-opacity="0"/>
</linearGradient>
<linearGradient id="paint3_linear_22335_73120" x1="138.956" y1="22.8151" x2="116.507" y2="70.3524" gradientUnits="userSpaceOnUse">
<stop stop-color="#D2D2D2"/>
<stop offset="1" stop-color="#D2D2D2" stop-opacity="0"/>
</linearGradient>
<linearGradient id="paint4_linear_22335_73120" x1="43.9463" y1="-19.0159" x2="43.9463" y2="16.4563" gradientUnits="userSpaceOnUse">
<stop stop-color="#D2D2D2"/>
<stop offset="1" stop-color="#D2D2D2" stop-opacity="0"/>
</linearGradient>
<linearGradient id="paint5_linear_22335_73120" x1="77.6003" y1="-22.625" x2="77.6003" y2="13.3715" gradientUnits="userSpaceOnUse">
<stop stop-color="#D2D2D2"/>
<stop offset="1" stop-color="#D2D2D2" stop-opacity="0"/>
</linearGradient>
<linearGradient id="paint6_linear_22335_73120" x1="106.664" y1="32.1874" x2="106.664" y2="44.2312" gradientUnits="userSpaceOnUse">
<stop stop-color="#D7D7D7"/>
<stop offset="1" stop-color="#E4E4E4"/>
</linearGradient>
<linearGradient id="paint7_linear_22335_73120" x1="86.6866" y1="26.1854" x2="86.3181" y2="84.5784" gradientUnits="userSpaceOnUse">
<stop stop-color="#F4F4F4"/>
<stop offset="0.96" stop-color="#DDDDDE"/>
</linearGradient>
<linearGradient id="paint8_linear_22335_73120" x1="79.1132" y1="86.353" x2="79.1132" y2="74.4078" gradientUnits="userSpaceOnUse">
<stop stop-color="#EAEAEA"/>
<stop offset="1" stop-color="#EFEFF0"/>
</linearGradient>
</defs>
</svg>
