<svg width="30" height="30" viewBox="0 0 30 30" fill="none" xmlns="http://www.w3.org/2000/svg">
<path d="M14.6593 19.3276C12.5493 19.3276 10.8334 17.6117 10.8334 15.5017C10.8334 13.3916 12.5493 11.6758 14.6593 11.6758C16.7694 11.6758 18.4852 13.3916 18.4852 15.5017C18.4852 17.6117 16.7694 19.3276 14.6593 19.3276V19.3276ZM14.6593 13.2958C13.443 13.2958 12.4534 14.2853 12.4534 15.5017C12.4534 16.718 13.443 17.7076 14.6593 17.7076C15.8757 17.7076 16.8652 16.718 16.8652 15.5017C16.8652 14.2853 15.8757 13.2958 14.6593 13.2958V13.2958Z" fill="white"/>
<path d="M14.6593 27.3504C13.6873 27.3504 12.7166 27.2303 11.7743 26.9954C11.5964 26.9509 11.4389 26.8473 11.3276 26.7017C11.2162 26.556 11.1577 26.3768 11.1614 26.1935C11.1614 26.1732 11.1628 26.153 11.1641 26.1314C11.1547 24.7449 10.0234 23.619 8.63424 23.619C8.16309 23.619 7.70004 23.7527 7.29639 24.0065C7.14125 24.1038 6.95768 24.1455 6.77571 24.1249C6.59375 24.1043 6.42416 24.0226 6.29469 23.8931C4.80699 22.4108 3.73779 20.5572 3.20454 18.5349C3.10869 18.1704 3.27609 17.787 3.60954 17.6115C4.03074 17.3888 4.37904 17.0553 4.61664 16.6463C4.78402 16.3593 4.89276 16.042 4.93656 15.7127C4.98036 15.3834 4.95835 15.0486 4.87179 14.7279C4.70213 14.0843 4.28412 13.5342 3.70944 13.1984C3.68919 13.1889 3.67164 13.1795 3.65409 13.17C3.4947 13.0808 3.37002 12.9405 3.30021 12.7717C3.2304 12.603 3.21952 12.4156 3.26934 12.2399C3.82559 10.2999 4.86731 8.53383 6.29604 7.10851C6.42566 6.97919 6.59533 6.89768 6.7773 6.87733C6.95926 6.85697 7.14275 6.89897 7.29774 6.99646C7.70139 7.24891 8.16444 7.38256 8.63559 7.38256C10.0247 7.38256 11.156 6.25666 11.1655 4.87021C11.1641 4.84861 11.1628 4.82836 11.1628 4.80811C11.1593 4.62485 11.2179 4.4458 11.3293 4.30017C11.4406 4.15454 11.5979 4.05092 11.7757 4.00621C13.6603 3.53506 15.661 3.53371 17.5469 4.00621C17.9128 4.09801 18.1679 4.43011 18.1598 4.80811C18.1598 4.82836 18.1585 4.84861 18.1571 4.86886C18.1666 6.25531 19.2979 7.38121 20.687 7.38121C21.1582 7.38121 21.6212 7.24756 22.0249 6.99511C22.18 6.89782 22.3636 6.85606 22.5456 6.87666C22.7275 6.89726 22.8971 6.979 23.0266 7.10851C24.5129 8.58943 25.5793 10.4385 26.1167 12.4667C26.2126 12.8312 26.0452 13.2132 25.7117 13.3901C25.2905 13.6128 24.9422 13.9463 24.706 14.3553C24.0107 15.5568 24.4171 17.0999 25.6118 17.8032C25.6307 17.8127 25.6469 17.8208 25.6631 17.8302C25.824 17.9187 25.9501 18.0592 26.0207 18.2286C26.0913 18.3981 26.1023 18.5865 26.0519 18.7631C25.4957 20.703 24.454 22.4691 23.0252 23.8944C22.8956 24.0237 22.726 24.1052 22.544 24.1256C22.362 24.146 22.1785 24.1039 22.0235 24.0065C21.6226 23.7548 21.159 23.621 20.6857 23.6204C19.2965 23.6204 18.1652 24.7463 18.1558 26.1327C18.1571 26.1543 18.1585 26.1746 18.1585 26.1935C18.1652 26.5715 17.9114 26.9036 17.5456 26.9954C16.6015 27.2308 15.6323 27.3501 14.6593 27.3504V27.3504ZM12.7409 25.5495C14.009 25.7898 15.3109 25.7898 16.579 25.5495C16.8706 23.5448 18.6013 21.999 20.6857 21.999C21.2365 21.999 21.7778 22.1097 22.2841 22.3217C23.1817 21.3175 23.8725 20.1464 24.3172 18.8751C22.7282 17.6183 22.2598 15.3476 23.3033 13.544C23.5787 13.0674 23.9473 12.653 24.3847 12.3209C23.9439 10.975 23.2286 9.73519 22.2841 8.67991C21.778 8.89267 21.2346 9.00236 20.6857 9.00256C18.6013 9.00256 16.8706 7.45681 16.579 5.45206C15.3109 5.21176 14.009 5.21176 12.7409 5.45206C12.4493 7.45681 10.72 9.00121 8.63559 9.00121C8.08479 9.00121 7.54209 8.89051 7.03719 8.67856C6.13978 9.68302 5.44853 10.8541 5.00274 12.1251C6.59034 13.3806 7.06149 15.6527 6.01659 17.4576C5.74098 17.9331 5.37337 18.3489 4.93524 18.6807C5.37607 20.0262 6.09136 21.2655 7.03584 22.3203C7.54074 22.1084 8.08344 21.9977 8.63424 21.9977C10.72 21.999 12.4493 23.5434 12.7409 25.5495V25.5495ZM3.69324 13.1903C3.69459 13.1903 3.69594 13.1916 3.69594 13.1916C3.69594 13.1916 3.69459 13.1903 3.69324 13.1903Z" fill="white"/>
</svg>
