<svg width="44" height="44" viewBox="0 0 44 44" fill="none" xmlns="http://www.w3.org/2000/svg">
<g filter="url(#filter0_d_23473_74660)">
<g filter="url(#filter1_b_23473_74660)">
<circle cx="22" cy="20" r="20" fill="#12539F" fill-opacity="0.08"/>
</g>
<path d="M30.4918 11.5238C30.0417 11.0617 29.3754 10.8896 28.7541 11.0708L14.2672 15.2836C13.6117 15.4657 13.1471 15.9884 13.022 16.6525C12.8941 17.3284 13.3407 18.1863 13.9242 18.5451L18.4539 21.3291C18.9185 21.6145 19.5181 21.5429 19.9026 21.1552L25.0896 15.9359C25.3507 15.6641 25.7829 15.6641 26.044 15.9359C26.3051 16.1986 26.3051 16.6244 26.044 16.8962L20.848 22.1164C20.4626 22.5033 20.3906 23.1057 20.6742 23.5732L23.442 28.1484C23.7661 28.692 24.3243 29 24.9366 29C25.0086 29 25.0896 29 25.1617 28.9909C25.8639 28.9003 26.4222 28.4202 26.6293 27.7407L30.924 13.2723C31.1131 12.6563 30.942 11.9858 30.4918 11.5238Z" fill="#0F50A4"/>
</g>
<defs>
<filter id="filter0_d_23473_74660" x="0" y="0" width="44" height="44" filterUnits="userSpaceOnUse" color-interpolation-filters="sRGB">
<feFlood flood-opacity="0" result="BackgroundImageFix"/>
<feColorMatrix in="SourceAlpha" type="matrix" values="0 0 0 0 0 0 0 0 0 0 0 0 0 0 0 0 0 0 127 0" result="hardAlpha"/>
<feOffset dy="2"/>
<feGaussianBlur stdDeviation="1"/>
<feComposite in2="hardAlpha" operator="out"/>
<feColorMatrix type="matrix" values="0 0 0 0 0.254902 0 0 0 0 0.254902 0 0 0 0 0.254902 0 0 0 0.04 0"/>
<feBlend mode="normal" in2="BackgroundImageFix" result="effect1_dropShadow_23473_74660"/>
<feBlend mode="normal" in="SourceGraphic" in2="effect1_dropShadow_23473_74660" result="shape"/>
</filter>
<filter id="filter1_b_23473_74660" x="-38" y="-40" width="120" height="120" filterUnits="userSpaceOnUse" color-interpolation-filters="sRGB">
<feFlood flood-opacity="0" result="BackgroundImageFix"/>
<feGaussianBlur in="BackgroundImageFix" stdDeviation="20"/>
<feComposite in2="SourceAlpha" operator="in" result="effect1_backgroundBlur_23473_74660"/>
<feBlend mode="normal" in="SourceGraphic" in2="effect1_backgroundBlur_23473_74660" result="shape"/>
</filter>
</defs>
</svg>
