<svg width="44" height="44" viewBox="0 0 44 44" fill="none" xmlns="http://www.w3.org/2000/svg">
<g filter="url(#filter0_d_23473_74681)">
<g filter="url(#filter1_b_23473_74681)">
<circle cx="22" cy="20" r="20" fill="#12539F" fill-opacity="0.08"/>
</g>
<path d="M19.3626 22.6376C19.2302 20.8715 19.2317 19.1296 19.3611 17.3665C21.1145 17.231 22.8588 17.234 24.6317 17.3635C24.7702 19.1175 24.7642 20.8685 24.6347 22.6361C22.8739 22.7701 21.1295 22.7701 19.3626 22.6376Z" fill="#12539F"/>
<path d="M26.5225 22.4416C26.5225 20.8095 26.5225 19.197 26.5225 17.5469C26.968 17.6116 27.4315 17.6658 27.889 17.7501C29.23 17.994 30.5213 18.4036 31.7675 18.9576C31.9345 19.0314 32.0053 19.1217 32.0008 19.3069C31.9902 19.7978 32.0008 20.2886 31.9872 20.7779C31.9857 20.8562 31.9195 20.9736 31.8518 21.0037C30.2007 21.7701 28.467 22.2459 26.6564 22.4416C26.6098 22.4461 26.5601 22.4416 26.5225 22.4416Z" fill="#12539F"/>
<path d="M24.4302 15.4774C22.8093 15.4774 21.1974 15.4774 19.5509 15.4774C19.584 15.2019 19.6126 14.9023 19.6578 14.6042C19.8956 13.079 20.329 11.611 20.9656 10.2033C21.0304 10.0587 21.1101 9.99852 21.2682 10C21.7723 10.0076 22.278 9.99852 22.7822 10.0121C22.859 10.0136 22.9703 10.0874 23.0019 10.1566C23.7605 11.7962 24.2315 13.5156 24.4317 15.3103C24.4377 15.36 24.4362 15.4097 24.4362 15.4593C24.4362 15.4714 24.4272 15.4834 24.4302 15.4774Z" fill="#12539F"/>
<path d="M24.4954 24.5249C24.3313 25.3606 24.1898 26.1947 24.0017 27.0167C23.7805 27.9818 23.4313 28.9062 23.0265 29.8096C22.9708 29.9346 22.9076 30.0023 22.7601 29.9993C22.2484 29.9918 21.7367 30.0008 21.2249 29.9903C21.1512 29.9888 21.0398 29.9331 21.0112 29.8713C20.2316 28.2016 19.75 26.4476 19.5619 24.6138C19.5589 24.5791 19.5619 24.5445 19.5619 24.5234C21.1858 24.5249 22.8022 24.5249 24.4954 24.5249Z" fill="#12539F"/>
<path d="M17.4743 22.4718C16.9536 22.3905 16.4178 22.3228 15.8911 22.2204C14.6088 21.972 13.3762 21.5685 12.1857 21.0325C12.0578 20.9753 11.9976 20.9075 11.9991 20.763C12.0066 20.2511 11.9961 19.7392 12.0096 19.2273C12.0111 19.1505 12.0833 19.0391 12.1511 19.0074C13.79 18.2471 15.5088 17.7758 17.3043 17.5741C17.366 17.5666 17.4292 17.5726 17.4743 17.5726C17.4743 19.1986 17.4743 20.8172 17.4743 22.4718Z" fill="#12539F"/>
<path d="M18.8376 29.4846C16.6057 29.2181 12.7995 25.4119 12.5195 23.1641C12.8627 23.2725 13.1983 23.3794 13.5339 23.4817C14.8147 23.8732 16.1226 24.1397 17.4545 24.2842C17.5975 24.2993 17.6998 24.3204 17.7194 24.5056C17.8865 26.1527 18.2582 27.7561 18.794 29.322C18.812 29.3747 18.8226 29.4274 18.8376 29.4846Z" fill="#12539F"/>
<path d="M25.1475 29.5087C25.2468 29.194 25.3371 28.914 25.4259 28.6309C25.8443 27.2909 26.1303 25.9223 26.2793 24.5251C26.2928 24.3956 26.3169 24.3053 26.4809 24.2887C28.1635 24.1171 29.801 23.7377 31.3978 23.1821C31.4174 23.1746 31.44 23.1746 31.5062 23.1641C31.1631 24.2105 30.6634 25.1439 30.0237 26.0066C28.7716 27.6914 26.946 28.9531 25.1475 29.5087Z" fill="#12539F"/>
<path d="M12.5195 16.8409C12.798 14.5976 16.6027 10.7929 18.8421 10.5234C18.7503 10.8125 18.6585 11.0941 18.5712 11.3756C18.1528 12.7171 17.8654 14.0842 17.7194 15.4814C17.7043 15.6289 17.6622 15.7057 17.4967 15.7223C15.8426 15.8939 14.2323 16.2643 12.661 16.8063C12.6174 16.8199 12.5707 16.8289 12.5195 16.8409Z" fill="#12539F"/>
<path d="M25.1563 10.5156C27.9556 11.3512 30.5774 13.8701 31.4939 16.8557C31.3976 16.8256 31.3208 16.803 31.2456 16.7774C29.712 16.258 28.1437 15.8966 26.5319 15.7265C26.3979 15.713 26.2956 15.6979 26.2775 15.5172C26.1074 13.843 25.7297 12.2109 25.1773 10.621C25.1698 10.5954 25.1668 10.5668 25.1563 10.5156Z" fill="#12539F"/>
</g>
<defs>
<filter id="filter0_d_23473_74681" x="0" y="0" width="44" height="44" filterUnits="userSpaceOnUse" color-interpolation-filters="sRGB">
<feFlood flood-opacity="0" result="BackgroundImageFix"/>
<feColorMatrix in="SourceAlpha" type="matrix" values="0 0 0 0 0 0 0 0 0 0 0 0 0 0 0 0 0 0 127 0" result="hardAlpha"/>
<feOffset dy="2"/>
<feGaussianBlur stdDeviation="1"/>
<feComposite in2="hardAlpha" operator="out"/>
<feColorMatrix type="matrix" values="0 0 0 0 0.254902 0 0 0 0 0.254902 0 0 0 0 0.254902 0 0 0 0.04 0"/>
<feBlend mode="normal" in2="BackgroundImageFix" result="effect1_dropShadow_23473_74681"/>
<feBlend mode="normal" in="SourceGraphic" in2="effect1_dropShadow_23473_74681" result="shape"/>
</filter>
<filter id="filter1_b_23473_74681" x="-38" y="-40" width="120" height="120" filterUnits="userSpaceOnUse" color-interpolation-filters="sRGB">
<feFlood flood-opacity="0" result="BackgroundImageFix"/>
<feGaussianBlur in="BackgroundImageFix" stdDeviation="20"/>
<feComposite in2="SourceAlpha" operator="in" result="effect1_backgroundBlur_23473_74681"/>
<feBlend mode="normal" in="SourceGraphic" in2="effect1_backgroundBlur_23473_74681" result="shape"/>
</filter>
</defs>
</svg>
