<svg width="21" height="13" viewBox="0 0 21 13" fill="none" xmlns="http://www.w3.org/2000/svg">
<path d="M4.29409 9.09273L4.00409 9.39273V1.80273C4.00409 1.53752 3.89873 1.28316 3.7112 1.09563C3.52366 0.908091 3.26931 0.802734 3.00409 0.802734C2.73888 0.802734 2.48452 0.908091 2.29699 1.09563C2.10945 1.28316 2.00409 1.53752 2.00409 1.80273V9.39273L1.71409 9.09273C1.52579 8.90443 1.27039 8.79864 1.00409 8.79864C0.73779 8.79864 0.482395 8.90443 0.294092 9.09273C0.105788 9.28104 0 9.53643 0 9.80273C0 10.069 0.105788 10.3244 0.294092 10.5127L2.29409 12.5127C2.3892 12.6038 2.50134 12.6751 2.62409 12.7227C2.74379 12.7756 2.87322 12.803 3.00409 12.803C3.13496 12.803 3.26439 12.7756 3.38409 12.7227C3.50684 12.6751 3.61899 12.6038 3.71409 12.5127L5.71409 10.5127C5.80733 10.4195 5.88129 10.3088 5.93175 10.187C5.98221 10.0652 6.00818 9.93459 6.00818 9.80273C6.00818 9.67088 5.98221 9.54031 5.93175 9.41848C5.88129 9.29666 5.80733 9.18597 5.71409 9.09273C5.62085 8.9995 5.51016 8.92553 5.38834 8.87507C5.26652 8.82461 5.13595 8.79864 5.00409 8.79864C4.87223 8.79864 4.74166 8.82461 4.61984 8.87507C4.49802 8.92553 4.38733 8.9995 4.29409 9.09273ZM9.00409 2.80273H19.0041C19.2693 2.80273 19.5237 2.69738 19.7112 2.50984C19.8987 2.3223 20.0041 2.06795 20.0041 1.80273C20.0041 1.53752 19.8987 1.28316 19.7112 1.09563C19.5237 0.908091 19.2693 0.802734 19.0041 0.802734H9.00409C8.73887 0.802734 8.48452 0.908091 8.29698 1.09563C8.10945 1.28316 8.00409 1.53752 8.00409 1.80273C8.00409 2.06795 8.10945 2.3223 8.29698 2.50984C8.48452 2.69738 8.73887 2.80273 9.00409 2.80273ZM19.0041 5.80273H9.00409C8.73887 5.80273 8.48452 5.90809 8.29698 6.09563C8.10945 6.28316 8.00409 6.53752 8.00409 6.80273C8.00409 7.06795 8.10945 7.3223 8.29698 7.50984C8.48452 7.69738 8.73887 7.80273 9.00409 7.80273H19.0041C19.2693 7.80273 19.5237 7.69738 19.7112 7.50984C19.8987 7.3223 20.0041 7.06795 20.0041 6.80273C20.0041 6.53752 19.8987 6.28316 19.7112 6.09563C19.5237 5.90809 19.2693 5.80273 19.0041 5.80273ZM19.0041 10.8027H9.00409C8.73887 10.8027 8.48452 10.9081 8.29698 11.0956C8.10945 11.2832 8.00409 11.5375 8.00409 11.8027C8.00409 12.068 8.10945 12.3223 8.29698 12.5098C8.48452 12.6974 8.73887 12.8027 9.00409 12.8027H19.0041C19.2693 12.8027 19.5237 12.6974 19.7112 12.5098C19.8987 12.3223 20.0041 12.068 20.0041 11.8027C20.0041 11.5375 19.8987 11.2832 19.7112 11.0956C19.5237 10.9081 19.2693 10.8027 19.0041 10.8027Z" fill="#BCC1CD"/>
</svg>
