<svg width="16" height="17" viewBox="0 0 16 17" fill="none" xmlns="http://www.w3.org/2000/svg">
<g opacity="0.5">
<path d="M14.9308 15.2594L12.5468 12.896C13.6086 11.6144 14.2509 9.95394 14.2509 8.14134C14.2509 4.09494 11.0541 0.802734 7.12501 0.802734C3.1959 0.802734 0 4.09494 0 8.14134C0 12.1877 3.19677 15.4799 7.12589 15.4799C8.91828 15.4799 10.5569 14.7932 11.8101 13.6646L14.2046 16.0379C14.3021 16.1351 14.4325 16.1893 14.5681 16.1891C14.7053 16.1891 14.8434 16.1333 14.9457 16.0235C15.1467 15.8075 15.1397 15.4655 14.9308 15.2594ZM7.12501 14.3999C3.77443 14.3999 1.04782 11.5928 1.04782 8.14134C1.04782 4.69074 3.77356 1.88273 7.12501 1.88273C10.4765 1.88273 13.2022 4.68984 13.2022 8.14134C13.2022 11.5928 10.4765 14.3999 7.12501 14.3999Z" fill="#464646"/>
<path d="M11.5846 8.68157C11.2953 8.68157 11.0603 8.43947 11.0603 8.14157C11.0603 5.90687 9.29496 4.08977 7.12591 4.08977C6.83665 4.08977 6.60156 3.84767 6.60156 3.54977C6.60156 3.25187 6.83665 3.00977 7.12591 3.00977C9.87349 3.00977 12.109 5.31197 12.109 8.14157C12.109 8.44037 11.8739 8.68157 11.5846 8.68157Z" fill="#464646"/>
</g>
</svg>
