<svg width="94" height="42" viewBox="0 0 94 42" fill="none" xmlns="http://www.w3.org/2000/svg">
<path d="M29.9081 24.3643C27.8355 23.4266 25.5883 20.9111 26.2253 18.5442C26.5439 18.4627 26.8791 18.5926 27.0595 18.8676C27.0595 18.8676 30.655 24.484 29.6462 19.317C29.1709 16.8888 28.3528 14.5413 28.2882 12.0322C28.1815 7.47315 32.3655 6.2089 33.5683 11.2465C33.7267 11.9126 34.3346 17.3285 35.7185 16.7077C35.8967 16.6139 36.0414 16.467 36.1324 16.2873C36.834 15.1363 37.0442 13.4452 38.3311 13.054C39.4595 12.6983 40.5718 13.678 41.1797 14.6901C42.4116 16.7465 44.0606 21.8585 41.5386 23.5916C39.0165 25.3246 32.6532 25.5995 29.9307 24.387L29.9081 24.3643Z" fill="url(#paint0_linear_29801_40635)"/>
<path d="M71.8342 25.3221C73.3447 24.0534 74.6247 21.4259 73.5303 19.5951C73.2427 19.6047 72.994 19.7984 72.9142 20.0748C72.9142 20.0748 71.2387 25.6088 70.8626 21.0598C70.6756 18.9125 70.8019 16.764 70.2792 14.6631C69.3078 10.823 65.5067 10.7629 65.6896 15.2474C65.7093 15.8388 66.4831 20.5004 65.1816 20.3122C65.0115 20.2743 64.857 20.1857 64.7383 20.0581C63.8808 19.2642 63.3044 17.9028 62.1388 17.8694C61.1148 17.8406 60.4194 18.9158 60.1486 19.9043C59.6057 21.9089 60.3665 24.8284 62.8785 25.679C65.4457 26.5444 69.8427 26.9936 71.818 25.336L71.8342 25.3221Z" fill="url(#paint1_linear_29801_40635)"/>
<path d="M-7.62939e-06 42C11.8111 29.681 28.5019 22 47 22C65.4981 22 82.1889 29.681 94 42H-7.62939e-06Z" fill="url(#paint2_linear_29801_40635)"/>
<path d="M37.4429 21.0451C37.4429 21.3814 37.527 21.6881 37.6952 21.9651C38.6674 23.5664 41.61 24.5815 43.7279 25.1253C45.2533 25.5169 46.847 25.5169 48.3724 25.1253C50.4903 24.5815 53.4329 23.5664 54.4051 21.9651C54.5733 21.6881 54.6574 21.3814 54.6574 21.0451V16.8838L47.2967 20.9203C47.0989 21.0192 46.896 21.1181 46.6883 21.2171C46.4805 21.316 46.2678 21.3655 46.0502 21.3655C45.8325 21.3655 45.6247 21.316 45.4269 21.2171L44.8333 20.9203L37.4429 16.8838V21.0451Z" fill="url(#paint3_linear_29801_40635)"/>
<path d="M57.3582 21.7085V13.9246L46.9108 19.5638C46.7723 19.6429 46.6338 19.6974 46.4953 19.727C46.3568 19.7567 46.2084 19.7716 46.0501 19.7716C45.8918 19.7716 45.7484 19.7567 45.6197 19.727C45.4911 19.6974 45.3576 19.6429 45.2191 19.5638L34.4452 13.6575C34.2869 13.5783 34.1731 13.4695 34.1039 13.331C34.0346 13.1925 34 13.0441 34 12.8858C34 12.7275 34.0346 12.5791 34.1039 12.4406C34.1731 12.3021 34.2869 12.1932 34.4452 12.1141L45.1894 6.23744C45.3279 6.15829 45.4664 6.09893 45.6049 6.05936C45.7434 6.01978 45.8918 6 46.0501 6C46.2084 6 46.3568 6.01978 46.4953 6.05936C46.6338 6.09893 46.7723 6.15829 46.9108 6.23744L58.6642 12.6187C58.8224 12.7176 58.9412 12.8363 59.0203 12.9748C59.0994 13.1133 59.139 13.2617 59.139 13.42V21.7085C60.2155 22.349 60.3095 23.824 59.2682 24.5928C59.1011 24.7181 59.085 24.8113 59.1493 24.9881C59.3743 25.589 59.5832 26.1964 59.7921 26.8038C59.9656 27.3052 59.7599 27.5912 59.2297 27.6009C58.9726 27.6037 58.7179 27.6015 58.4635 27.601L58.3587 27.6009C58.2598 27.6009 58.161 27.6021 58.0621 27.6033C57.8396 27.606 57.6171 27.6088 57.3946 27.5976C56.9639 27.5784 56.7647 27.2795 56.9029 26.8713C57.1182 26.2318 57.3368 25.5955 57.5713 24.9623C57.6356 24.792 57.6067 24.7117 57.4556 24.5992C56.4919 23.8906 56.4734 22.4377 57.3582 21.7085Z" fill="url(#paint4_linear_29801_40635)"/>
<defs>
<linearGradient id="paint0_linear_29801_40635" x1="31.0004" y1="45" x2="34.2889" y2="7.98123" gradientUnits="userSpaceOnUse">
<stop stop-color="white" stop-opacity="0"/>
<stop offset="1" stop-color="#DDE9F7"/>
</linearGradient>
<linearGradient id="paint1_linear_29801_40635" x1="68.013" y1="24.3317" x2="70.7425" y2="3.54916" gradientUnits="userSpaceOnUse">
<stop stop-color="#E5F1FF" stop-opacity="0.3"/>
<stop offset="1" stop-color="#E7EFF7"/>
</linearGradient>
<linearGradient id="paint2_linear_29801_40635" x1="43.7326" y1="42.2941" x2="43.2184" y2="18.8986" gradientUnits="userSpaceOnUse">
<stop stop-color="white" stop-opacity="0"/>
<stop offset="1" stop-color="#DDE9F7"/>
</linearGradient>
<linearGradient id="paint3_linear_29801_40635" x1="47.5237" y1="16.5213" x2="34.6744" y2="31.0622" gradientUnits="userSpaceOnUse">
<stop stop-color="#0382CC"/>
<stop offset="1" stop-color="#2FAEFD"/>
</linearGradient>
<linearGradient id="paint4_linear_29801_40635" x1="46.9624" y1="4.59596" x2="32.8921" y2="28.2004" gradientUnits="userSpaceOnUse">
<stop stop-color="#094A9E"/>
<stop offset="1" stop-color="#4E8FE3"/>
</linearGradient>
</defs>
</svg>
