<svg width="24" height="24" viewBox="0 0 24 24" fill="none" xmlns="http://www.w3.org/2000/svg">
<path fill-rule="evenodd" clip-rule="evenodd" d="M10.4001 17.4939H5.14926C4.80426 17.4939 4.52426 17.2139 4.52426 16.8689C4.52426 16.5239 4.80426 16.2439 5.14926 16.2439H10.4001C10.7451 16.2439 11.0251 16.5239 11.0251 16.8689C11.0251 17.2139 10.7451 17.4939 10.4001 17.4939Z" fill="#0F50A4"/>
<path d="M10.4001 17.4939H5.14926C4.80426 17.4939 4.52426 17.2139 4.52426 16.8689C4.52426 16.5239 4.80426 16.2439 5.14926 16.2439H10.4001C10.7451 16.2439 11.0251 16.5239 11.0251 16.8689C11.0251 17.2139 10.7451 17.4939 10.4001 17.4939" stroke="#0F50A4" stroke-width="0.5"/>
<path fill-rule="evenodd" clip-rule="evenodd" d="M17.9924 9.41699H12.7424C12.3974 9.41699 12.1174 9.13699 12.1174 8.79199C12.1174 8.44699 12.3974 8.16699 12.7424 8.16699H17.9924C18.3374 8.16699 18.6174 8.44699 18.6174 8.79199C18.6174 9.13699 18.3374 9.41699 17.9924 9.41699Z" fill="#0F50A4"/>
<path d="M17.9924 9.41699H12.7424C12.3974 9.41699 12.1174 9.13699 12.1174 8.79199C12.1174 8.44699 12.3974 8.16699 12.7424 8.16699H17.9924C18.3374 8.16699 18.6174 8.44699 18.6174 8.79199C18.6174 9.13699 18.3374 9.41699 17.9924 9.41699" stroke="#0F50A4" stroke-width="0.5"/>
<mask id="mask0_29896_41515" style="mask-type:luminance" maskUnits="userSpaceOnUse" x="4" y="5" width="6" height="7">
<path fill-rule="evenodd" clip-rule="evenodd" d="M4.5 6.16699H9.68817V11.3267H4.5V6.16699Z" fill="white" stroke="white" stroke-width="0.5"/>
</mask>
<g mask="url(#mask0_29896_41515)">
<path fill-rule="evenodd" clip-rule="evenodd" d="M7.09401 7.41675C6.35318 7.41675 5.74985 8.01341 5.74985 8.74758C5.74985 9.48092 6.35318 10.0767 7.09401 10.0767C7.83568 10.0767 8.43818 9.48092 8.43818 8.74758C8.43818 8.01341 7.83568 7.41675 7.09401 7.41675ZM7.09401 11.3267C5.66401 11.3267 4.49985 10.1701 4.49985 8.74758C4.49985 7.32508 5.66401 6.16675 7.09401 6.16675C8.52485 6.16675 9.68818 7.32508 9.68818 8.74758C9.68818 10.1701 8.52485 11.3267 7.09401 11.3267Z" fill="#0F50A4"/>
<path d="M7.09401 7.16675C6.21755 7.16675 5.49985 7.87292 5.49985 8.74758H5.99985C5.99985 8.15391 6.48881 7.66675 7.09401 7.66675V7.16675ZM5.49985 8.74758C5.49985 9.62172 6.21786 10.3267 7.09401 10.3267V9.82675C6.48851 9.82675 5.99985 9.34011 5.99985 8.74758H5.49985ZM7.09401 10.3267C7.97111 10.3267 8.68818 9.62162 8.68818 8.74758H8.18818C8.18818 9.34021 7.70026 9.82675 7.09401 9.82675V10.3267ZM8.68818 8.74758C8.68818 7.87302 7.97141 7.16675 7.09401 7.16675V7.66675C7.69995 7.66675 8.18818 8.15381 8.18818 8.74758H8.68818ZM7.09401 11.0767C5.80067 11.0767 4.74985 10.0306 4.74985 8.74758H4.24985C4.24985 10.3096 5.52736 11.5767 7.09401 11.5767V11.0767ZM4.74985 8.74758C4.74985 7.46436 5.80088 6.41675 7.09401 6.41675V5.91675C5.52715 5.91675 4.24985 7.18581 4.24985 8.74758H4.74985ZM7.09401 6.41675C8.38793 6.41675 9.43818 7.4643 9.43818 8.74758H9.93818C9.93818 7.18586 8.66176 5.91675 7.09401 5.91675V6.41675ZM9.43818 8.74758C9.43818 10.0306 8.38814 11.0767 7.09401 11.0767V11.5767C8.66155 11.5767 9.93818 10.3095 9.93818 8.74758H9.43818Z" fill="#0F50A4"/>
</g>
<path fill-rule="evenodd" clip-rule="evenodd" d="M16.4897 15.5066C15.7481 15.5066 15.1447 16.1033 15.1447 16.8366C15.1447 17.5708 15.7481 18.1666 16.4897 18.1666C17.2306 18.1666 17.8331 17.5708 17.8331 16.8366C17.8331 16.1033 17.2306 15.5066 16.4897 15.5066ZM16.4897 19.4166C15.0589 19.4166 13.8947 18.2591 13.8947 16.8366C13.8947 15.4141 15.0589 14.2566 16.4897 14.2566C17.9197 14.2566 19.0831 15.4141 19.0831 16.8366C19.0831 18.2591 17.9197 19.4166 16.4897 19.4166Z" fill="#0F50A4"/>
<path d="M16.4897 15.2566C15.6126 15.2566 14.8947 15.9626 14.8947 16.8366H15.3947C15.3947 16.244 15.8835 15.7566 16.4897 15.7566V15.2566ZM14.8947 16.8366C14.8947 17.7116 15.6128 18.4166 16.4897 18.4166V17.9166C15.8834 17.9166 15.3947 17.43 15.3947 16.8366H14.8947ZM16.4897 18.4166C17.3662 18.4166 18.0831 17.7113 18.0831 16.8366H17.5831C17.5831 17.4303 17.0949 17.9166 16.4897 17.9166V18.4166ZM18.0831 16.8366C18.0831 15.9629 17.3663 15.2566 16.4897 15.2566V15.7566C17.0948 15.7566 17.5831 16.2437 17.5831 16.8366H18.0831ZM16.4897 19.1666C15.1956 19.1666 14.1447 18.1197 14.1447 16.8366H13.6447C13.6447 18.3985 14.9222 19.6666 16.4897 19.6666V19.1666ZM14.1447 16.8366C14.1447 15.5535 15.1956 14.5066 16.4897 14.5066V14.0066C14.9222 14.0066 13.6447 15.2747 13.6447 16.8366H14.1447ZM16.4897 14.5066C17.7829 14.5066 18.8331 15.5534 18.8331 16.8366H19.3331C19.3331 15.2748 18.0566 14.0066 16.4897 14.0066V14.5066ZM18.8331 16.8366C18.8331 18.1198 17.7829 19.1666 16.4897 19.1666V19.6666C18.0566 19.6666 19.3331 18.3984 19.3331 16.8366H18.8331Z" fill="#0F50A4"/>
</svg>
