<svg width="45" height="32" viewBox="0 0 45 32" fill="none" xmlns="http://www.w3.org/2000/svg">
<path fill-rule="evenodd" clip-rule="evenodd" d="M6.59804 9.26175C6.59154 9.26791 6.41388 9.29361 6.20324 9.31881C5.99261 9.344 5.76921 9.37745 5.7068 9.39316C5.64439 9.40886 5.48482 9.44637 5.3522 9.47652C5.21958 9.50667 5.08555 9.54295 5.05434 9.55711C5.02314 9.57131 4.96569 9.59149 4.92668 9.60199C4.74385 9.65117 4.31053 9.82954 3.97148 9.99518C3.61623 10.1687 3.47969 10.2459 3.20251 10.4297C3.13573 10.474 3.06873 10.5102 3.05358 10.5102C3.03843 10.5102 3.02603 10.5207 3.02603 10.5335C3.02603 10.5463 2.96541 10.5961 2.89128 10.6441C2.81716 10.6921 2.71824 10.7637 2.67143 10.803C2.28339 11.1293 1.959 11.4384 1.74425 11.6864C1.67115 11.7708 1.58499 11.8701 1.55277 11.9072C1.52051 11.9442 1.49416 11.9827 1.49416 11.9928C1.49416 12.003 1.47183 12.0357 1.44452 12.0656C1.2894 12.2352 0.962715 12.7438 0.798294 13.0716C0.751941 13.164 0.707432 13.2459 0.699318 13.2536C0.624852 13.3244 0.274934 14.2944 0.186057 14.6763C-0.0663615 15.7611 -0.0617941 16.9418 0.198851 17.9984C0.283813 18.3428 0.386874 18.6888 0.415639 18.7263C0.427468 18.7416 0.453226 18.8046 0.472885 18.8662C0.492516 18.9278 0.524798 19.0097 0.544599 19.0482C0.5644 19.0867 0.640341 19.2441 0.71336 19.3981C0.786351 19.5521 0.902546 19.7698 0.971537 19.882C1.04056 19.9941 1.09701 20.097 1.09701 20.1106C1.09701 20.1242 1.10714 20.1394 1.1195 20.1446C1.13187 20.1497 1.17179 20.2021 1.20824 20.261C1.26798 20.3576 1.50486 20.6651 1.71878 20.9237C1.87832 21.1166 2.35663 21.5756 2.61101 21.7799C2.93948 22.0437 2.94952 22.0512 3.15369 22.184C3.2473 22.2449 3.33666 22.3048 3.35226 22.317C3.51325 22.4435 4.43924 22.8846 4.71392 22.9657C4.77633 22.9841 4.85293 23.0106 4.88413 23.0245C5.13388 23.1363 5.96603 23.3115 6.47274 23.3591C6.63892 23.3747 8.77168 23.3862 11.6215 23.3869L16.4866 23.388L16.0352 23.8145C14.9492 24.8403 13.4563 26.3446 12.6694 27.2061C12.6001 27.2819 12.518 27.3698 12.4867 27.4014C12.4555 27.4329 12.3853 27.5107 12.3307 27.5743C12.2308 27.6905 11.8613 28.1094 11.7621 28.2188C11.6864 28.3024 11.1374 28.9612 11.0624 29.0585C10.9505 29.2036 10.5409 29.7263 10.5013 29.7744C10.4801 29.8001 10.4492 29.8464 10.4325 29.8772C10.4157 29.908 10.3859 29.95 10.3662 29.9704C10.2196 30.1222 9.29535 31.6066 9.29535 31.6902C9.29535 31.6995 9.26307 31.7705 9.22364 31.8479C9.18418 31.9255 9.15686 31.9937 9.1629 31.9997C9.16897 32.0057 9.26188 31.9128 9.36939 31.7933C9.8344 31.2763 11.1577 30.0008 11.7337 29.5143C11.8499 29.4161 11.9758 29.3078 12.0134 29.2737C12.051 29.2396 12.2047 29.1136 12.3551 28.9939C12.5055 28.8741 12.6432 28.7635 12.6611 28.748C12.6789 28.7325 12.7349 28.6884 12.7855 28.6499C12.836 28.6114 12.9172 28.5476 12.9658 28.5082C13.0689 28.4245 13.424 28.1541 13.5241 28.0831C13.7679 27.9101 13.9089 27.8088 13.9335 27.7886C13.9491 27.7759 14.0449 27.7094 14.1463 27.6408C14.2477 27.5723 14.337 27.5083 14.3449 27.4986C14.3527 27.4889 14.4867 27.3983 14.6427 27.2971C14.7987 27.1959 14.9418 27.0999 14.9607 27.0837C14.9795 27.0675 15.0021 27.0543 15.011 27.0543C15.0198 27.0543 15.0885 27.0133 15.1636 26.9633C15.2386 26.9133 15.3928 26.8156 15.5061 26.7464C15.6194 26.6771 15.7523 26.5947 15.8015 26.5634C15.9612 26.4615 17.0448 25.873 17.3944 25.6983C17.701 25.545 17.93 25.4379 18.3589 25.2471C18.7651 25.0665 18.8303 25.0388 18.8495 25.0388C18.861 25.0388 18.9149 25.0153 18.9693 24.9867C19.0236 24.9581 19.1 24.9252 19.139 24.9136C19.178 24.902 19.2483 24.8754 19.2951 24.8544C19.4118 24.8021 20.0766 24.5702 20.3021 24.5031C20.4035 24.4729 20.512 24.4372 20.5433 24.4236C20.6376 24.3825 21.6937 24.1022 21.9894 24.0396C22.4022 23.9524 22.9426 23.86 23.4226 23.7947C23.9112 23.7282 24.375 23.6369 24.4864 23.5854C24.5176 23.5709 24.6116 23.5378 24.6952 23.5118C25.0047 23.4156 25.3738 23.1707 25.6385 22.8859C25.832 22.6777 25.8458 22.6602 25.9057 22.5447C25.933 22.4923 25.9638 22.4431 25.9742 22.4354C26.0034 22.4138 26.162 22.0771 26.2433 21.864C26.3286 21.6403 26.3807 21.4617 26.4727 21.0777C26.5095 20.9237 26.5737 20.6592 26.6153 20.4898C26.6568 20.3205 26.721 20.0559 26.7579 19.902C26.7948 19.748 26.8577 19.4898 26.8977 19.3281C26.9376 19.1664 27.0019 18.9051 27.0404 18.7472C27.0789 18.5894 27.142 18.3312 27.1805 18.1734C27.219 18.0156 27.2832 17.7542 27.3232 17.5925C27.4079 17.2499 27.5114 16.8256 27.6064 16.4308C27.7239 15.9428 27.7294 15.9412 27.7321 16.3947C27.7346 16.8227 27.7737 17.3114 27.8189 17.4805C27.8333 17.5344 27.8666 17.6982 27.8928 17.8445C27.919 17.9907 27.9516 18.1224 27.9652 18.137C27.9788 18.1516 27.9898 18.1872 27.9898 18.216C27.9898 18.3092 28.3385 19.2583 28.388 19.3001C28.3972 19.3078 28.4647 19.4338 28.5381 19.5801C28.6114 19.7263 28.6872 19.8708 28.7065 19.9012C28.8507 20.1284 29.0793 20.4632 29.1126 20.496C29.1348 20.5179 29.153 20.5444 29.153 20.5548C29.153 20.5742 29.1931 20.6238 29.4285 20.8957C29.5903 21.0827 30.1481 21.6283 30.3156 21.7635C30.3823 21.8174 30.4704 21.8899 30.5112 21.9247C30.5521 21.9594 30.6078 21.9949 30.6352 22.0035C30.6625 22.0122 30.6848 22.029 30.6848 22.0409C30.6848 22.0529 30.7295 22.0864 30.7841 22.1154C30.8387 22.1444 30.8834 22.175 30.8834 22.1834C30.8834 22.1918 30.9312 22.2235 30.9898 22.2538C31.0483 22.2841 31.1025 22.3167 31.1103 22.3262C31.1181 22.3358 31.1692 22.366 31.2238 22.3934C31.2784 22.4208 31.3295 22.4514 31.3373 22.4615C31.3746 22.5097 32.2288 22.8991 32.4152 22.953C32.4543 22.9643 32.5245 22.9901 32.5713 23.0104C32.7641 23.0939 33.2804 23.2175 33.9329 23.3362C34.0518 23.3579 35.6664 23.3705 39.2909 23.378C44.2552 23.3884 44.4781 23.3867 44.4642 23.339C44.4563 23.3116 44.144 22.7475 43.7702 22.0855L43.0907 20.8817L40.7245 20.8653C39.2512 20.8551 38.3155 20.838 38.2449 20.82C37.7894 20.7044 37.65 20.6621 37.4439 20.5773C37.1943 20.4746 36.8915 20.315 36.7234 20.1978C36.6668 20.1583 36.5913 20.107 36.5557 20.0839C36.3993 19.9824 36.0349 19.6378 35.8452 19.4121C35.5983 19.1183 35.4634 18.8898 35.1921 18.3064C35.1487 18.2131 35.0496 17.8712 35.0013 17.6485C34.935 17.3423 34.9352 15.3269 35.0017 15.0171C35.055 14.7685 35.1618 14.4004 35.1923 14.3599C35.2042 14.3442 35.2369 14.2699 35.265 14.1949C35.3223 14.0421 35.5421 13.6434 35.6326 13.5282C35.6651 13.4868 35.7361 13.3924 35.7904 13.3183C35.9207 13.1404 36.3696 12.7016 36.5295 12.5958C36.5992 12.5496 36.6626 12.5044 36.6704 12.4953C36.744 12.4091 37.386 12.0859 37.635 12.0096C37.7208 11.9834 37.8165 11.9511 37.8477 11.9379C37.9292 11.9034 38.1434 11.8619 38.4939 11.8128C38.7469 11.7773 39.169 11.7699 40.9344 11.7699C43.3381 11.7699 43.0904 11.7943 43.2154 11.5453C43.2501 11.4764 43.316 11.357 43.362 11.28C43.408 11.203 43.4993 11.0393 43.565 10.9161C43.6306 10.7929 43.7083 10.6587 43.7376 10.6179C43.7668 10.577 43.7908 10.5306 43.7908 10.5149C43.7908 10.4991 43.8067 10.4696 43.8263 10.4492C43.8458 10.4289 43.89 10.3555 43.9246 10.2863C43.9593 10.217 44.0258 10.0973 44.0726 10.0203C44.1194 9.94334 44.1754 9.84256 44.1971 9.79637C44.2188 9.75018 44.2958 9.61372 44.3683 9.49312C44.4407 9.37252 44.5 9.26861 44.5 9.26217C44.5 9.25576 42.2373 9.25058 39.4718 9.25067C34.5782 9.25084 34.4318 9.25238 34.0039 9.3078C33.4407 9.38078 32.6523 9.56873 32.3727 9.69666C32.3415 9.71094 32.1928 9.77336 32.0422 9.83542C31.8915 9.89746 31.7256 9.97169 31.6734 10.0004C31.6211 10.0291 31.4954 10.0955 31.394 10.1481C31.2926 10.2007 31.1968 10.2538 31.1812 10.266C31.1656 10.2783 31.0699 10.3402 30.9685 10.4037C30.8671 10.4672 30.7506 10.5454 30.7096 10.5776C30.6687 10.6098 30.5991 10.6614 30.555 10.6922C30.031 11.0581 29.3069 11.8205 28.9199 12.4138C28.6965 12.7564 28.6615 12.8159 28.4968 13.1346C28.4152 13.2924 28.3399 13.4215 28.3295 13.4215C28.3116 13.4215 27.8601 13.7569 27.6839 13.9011C27.6393 13.9375 27.5598 13.9989 27.5073 14.0374C27.4547 14.0759 27.2949 14.2018 27.1521 14.3173C27.0093 14.4328 26.8501 14.5587 26.7983 14.5972C26.7466 14.6357 26.5867 14.7617 26.4432 14.8772C26.2996 14.9926 26.1389 15.1207 26.086 15.1617C26.0332 15.2027 25.958 15.2633 25.919 15.2963C25.7581 15.4328 25.5838 15.5739 25.0538 15.9972C24.4613 16.4704 24.4281 16.4972 24.3388 16.5751C24.1919 16.7032 24.1468 16.7405 23.919 16.9218C23.6827 17.1099 23.6128 17.1676 23.4788 17.2846C23.4347 17.3231 23.3791 17.3702 23.3553 17.3893C23.2017 17.5127 22.8886 17.7702 22.8411 17.8124C22.8099 17.8401 22.6567 17.9674 22.5006 18.0954C22.3446 18.2233 22.2106 18.337 22.2028 18.348C22.195 18.359 22.112 18.4291 22.0184 18.5037C21.9248 18.5783 21.8341 18.6526 21.8169 18.6688C21.7658 18.7169 21.5012 18.9415 21.1532 19.2322C20.9737 19.382 20.8205 19.513 20.8127 19.5233C20.8049 19.5335 20.6964 19.629 20.5716 19.7354C20.3396 19.9332 20.2999 19.9673 20.0043 20.2235C19.9106 20.3046 19.7522 20.4418 19.6522 20.5284C19.5522 20.6149 19.4296 20.7236 19.3798 20.7698C19.3299 20.816 19.1948 20.9356 19.0796 21.0357C18.9644 21.1358 18.8369 21.2492 18.7963 21.2876C18.7557 21.3261 18.6232 21.4452 18.5018 21.5522C18.3803 21.6592 18.2464 21.7789 18.2042 21.8181C18.162 21.8574 18.0637 21.9462 17.9858 22.0155C17.702 22.2678 17.163 22.7628 16.927 22.9877C16.7388 23.1671 16.6789 23.2098 16.6568 23.1804C16.6412 23.1597 16.3412 22.6311 15.9902 22.0057L15.3519 20.8687L13.0967 20.8667C11.374 20.8652 10.7878 20.856 10.6145 20.8279C10.3626 20.787 9.92095 20.677 9.87689 20.6442C9.86129 20.6326 9.79747 20.6071 9.73506 20.5876C9.67265 20.568 9.51935 20.4995 9.39436 20.4354C8.89182 20.1775 8.41413 19.7899 8.08971 19.3768C8.07411 19.357 8.02211 19.2907 7.97414 19.2294C7.88995 19.122 7.62164 18.6982 7.62164 18.6727C7.62164 18.6658 7.58457 18.5806 7.53926 18.4833C7.49396 18.386 7.44065 18.2497 7.42082 18.1804C7.401 18.1111 7.37575 18.0418 7.36477 18.0264C7.35376 18.011 7.32315 17.8788 7.29677 17.7325C7.27039 17.5862 7.23697 17.4137 7.22248 17.3492C7.18639 17.1884 7.18903 15.5141 7.22568 15.3087C7.29927 14.8967 7.34761 14.665 7.36545 14.6392C7.37606 14.6238 7.40108 14.5545 7.42102 14.4853C7.55756 14.0107 7.99329 13.3204 8.40003 12.9342C9.02688 12.3391 9.74898 11.9757 10.5861 11.8339C10.8319 11.7923 11.1705 11.7839 13.1218 11.7709L15.3738 11.7559L15.5138 11.49C15.5908 11.3437 15.6896 11.1666 15.7332 11.0965C15.7769 11.0264 15.8215 10.9414 15.8324 10.9076C15.8433 10.8738 15.8627 10.8461 15.8756 10.8461C15.8884 10.8461 15.9206 10.7926 15.9471 10.7272C15.9737 10.6618 16.0038 10.602 16.0141 10.5943C16.0379 10.5763 16.083 10.4976 16.2386 10.2023C16.3486 9.99353 16.4155 9.87638 16.5505 9.65641C16.5777 9.61204 16.6869 9.402 16.7506 9.2715C16.7609 9.25042 6.6202 9.24068 6.59804 9.26175Z" fill="white"/>
<path fill-rule="evenodd" clip-rule="evenodd" d="M24.5837 0.0142762C24.2781 0.0477238 24.0516 0.0918198 23.8286 0.16132C23.3231 0.318872 22.7111 0.651365 22.4039 0.935372C22.0112 1.29845 21.9766 1.33442 21.7483 1.61741C21.5761 1.83095 21.2799 2.37104 21.2067 2.60529C21.1872 2.66759 21.1619 2.73132 21.1504 2.74689C21.1389 2.76247 21.0925 2.92178 21.0472 3.10091C20.9689 3.4108 20.965 3.45683 20.965 4.04968C20.965 4.60585 20.972 4.70011 21.0302 4.92764C21.2378 5.73905 21.5801 6.35422 22.1332 6.90983C22.2449 7.02201 22.5392 7.27115 22.5992 7.30423C22.625 7.31847 22.6525 7.33787 22.6603 7.34736C22.6682 7.35682 22.7066 7.38477 22.7458 7.40947C22.8113 7.45071 22.8378 7.44997 23.0735 7.40027C23.2146 7.37053 23.5159 7.32201 23.7431 7.29248C23.9703 7.26291 24.2204 7.22547 24.2987 7.20927C24.3771 7.1931 24.5758 7.15404 24.7404 7.12249C25.1965 7.03506 25.8728 6.86893 26.2363 6.75502C26.7299 6.60036 27.6002 6.29542 27.7786 6.21465C27.8454 6.18437 27.9091 6.15962 27.9201 6.15962C27.9736 6.15962 28.6627 5.83341 28.6922 5.7941C28.7409 5.72933 28.9176 5.22204 28.9841 4.95596C29.1696 4.21374 29.104 3.30327 28.8122 2.57054C28.7246 2.35054 28.4709 1.85865 28.403 1.77711C28.3802 1.74973 28.3242 1.67994 28.2787 1.62202C28.2331 1.56411 28.187 1.52548 28.1762 1.53618C28.1655 1.54692 28.1638 1.53695 28.1726 1.51406C28.1939 1.45872 27.5927 0.871083 27.422 0.780256C27.3899 0.763178 27.3298 0.717978 27.2883 0.679829C27.2469 0.641652 27.1856 0.601945 27.1521 0.591551C27.1186 0.581157 27.0847 0.563229 27.0769 0.551702C27.0455 0.505454 26.5921 0.296782 26.3645 0.223826C26.2313 0.181117 26.0967 0.135661 26.0654 0.122831C25.8475 0.0335908 24.9849 -0.0295936 24.5837 0.0142762ZM37.4122 1.27376C37.3426 1.36045 37.0989 1.6246 36.836 1.8983C36.789 1.94724 36.7107 2.03076 36.662 2.08389C36.6133 2.13699 36.4819 2.26787 36.3699 2.37472C36.258 2.48155 36.1664 2.58031 36.1664 2.59421C36.1664 2.60809 36.1541 2.61945 36.139 2.61945C36.1239 2.61945 35.9964 2.73098 35.8557 2.86726C35.715 3.00357 35.5135 3.19154 35.408 3.285C35.3024 3.37846 35.1575 3.50724 35.0858 3.57119C34.8816 3.75338 34.412 4.1556 34.3124 4.23377C34.2627 4.27271 34.1883 4.33238 34.1471 4.36634C33.9642 4.51706 33.6901 4.73415 33.6171 4.78603C33.5734 4.81719 33.4821 4.88728 33.4145 4.9418C33.1849 5.12671 32.4702 5.64403 32.2992 5.74896C32.1993 5.81025 32.1525 5.85944 32.1689 5.88584C32.1784 5.90105 32.1723 5.90501 32.1555 5.89467C32.1386 5.88434 32.0077 5.95565 31.8646 6.05313C31.7214 6.15064 31.5697 6.24957 31.5275 6.27296C31.4853 6.29636 31.4103 6.34416 31.3608 6.37917C31.3114 6.41417 31.258 6.44283 31.2421 6.44283C31.2262 6.44283 31.209 6.45286 31.2037 6.46512C31.1985 6.47736 31.0917 6.54692 30.9663 6.61967C30.8409 6.69243 30.7255 6.76267 30.7099 6.77581C30.6942 6.78892 30.4249 6.94027 30.1115 7.11213C29.2665 7.57543 28.9743 7.71812 27.832 8.22521C27.7693 8.25305 27.609 8.31734 27.4758 8.36809C27.3426 8.41885 27.1951 8.47614 27.1481 8.4954C26.968 8.56917 26.222 8.82192 25.9086 8.91526C25.3467 9.08267 25.1103 9.14345 24.3557 9.3144C24.1417 9.36291 23.615 9.44759 23.0922 9.5176C22.9144 9.54142 22.7156 9.57218 22.6505 9.586C22.2906 9.66224 22.0223 9.73021 21.9942 9.7523C21.9766 9.76609 21.911 9.79351 21.8483 9.81325C21.7185 9.85412 21.4994 9.97009 21.3024 10.1022C21.1651 10.1944 20.7797 10.5671 20.7797 10.6078C20.7797 10.6202 20.7614 10.6486 20.7389 10.6709C20.683 10.7265 20.4328 11.2112 20.3704 11.3849C20.3423 11.4628 20.308 11.552 20.294 11.5832C20.265 11.6482 20.1794 11.9658 20.0805 12.3762C20.0429 12.5319 19.9793 12.7932 19.9392 12.9568C19.8206 13.4397 19.691 13.9761 19.5116 14.7268C19.4744 14.8826 19.4096 15.1502 19.3677 15.3216C19.3258 15.4929 19.262 15.7542 19.2258 15.9022C19.1897 16.0502 19.1258 16.3114 19.0838 16.4828C19.0012 16.8195 18.882 17.3227 18.7886 17.7289C18.7564 17.8691 18.7168 18.0284 18.7008 18.0829C18.6847 18.1374 18.6203 18.3987 18.5577 18.6635C18.4951 18.9283 18.4322 19.1832 18.418 19.2299C18.3567 19.4321 18.2369 19.983 18.2512 19.9972C18.2598 20.0058 18.2905 19.9937 18.3194 19.9704C18.3484 19.9471 18.5195 19.8094 18.6997 19.6644C18.8799 19.5195 19.0466 19.3853 19.0701 19.3663C19.1102 19.3338 19.3204 19.1695 19.5705 18.975C19.6306 18.9283 19.7589 18.8264 19.8556 18.7485C19.9522 18.6706 20.0802 18.5686 20.1399 18.5219C20.1997 18.4752 20.2815 18.4089 20.3218 18.3746C20.3621 18.3403 20.4726 18.2511 20.5673 18.1764C20.662 18.1016 20.7581 18.0246 20.781 18.0052C20.8556 17.9418 21.2945 17.5891 21.3907 17.5152C21.4423 17.4755 21.5037 17.4245 21.5271 17.4019C21.5505 17.3792 21.6131 17.3263 21.6662 17.2843C21.8195 17.163 22.478 16.6213 22.7743 16.3728C22.9232 16.248 23.0578 16.1359 23.0735 16.1238C23.1709 16.0486 23.867 15.4674 24.0004 15.3499C24.0889 15.272 24.1922 15.184 24.23 15.1543C24.2907 15.1065 24.3966 15.0176 24.5837 14.8572C24.615 14.8304 24.7304 14.734 24.8401 14.6431C24.9498 14.5522 25.0716 14.4479 25.1108 14.4113C25.15 14.3747 25.2141 14.3182 25.2533 14.2858C25.422 14.1459 25.8462 13.7804 25.9999 13.6426C26.0916 13.5603 26.1939 13.471 26.2271 13.4443C26.2603 13.4176 26.3465 13.3433 26.4186 13.2792C26.4907 13.2152 26.6267 13.0954 26.7207 13.0132C27.3579 12.4556 27.5688 12.2678 27.6458 12.1896C27.6855 12.1493 27.7949 12.0521 27.889 11.9735C27.983 11.895 28.1263 11.7686 28.2074 11.6928C28.2885 11.6169 28.4339 11.4847 28.5304 11.3991C28.627 11.3134 28.768 11.186 28.8437 11.1159C28.9195 11.0458 29.1203 10.861 29.29 10.7053C29.4597 10.5496 29.714 10.3121 29.855 10.1775C29.9961 10.0429 30.2062 9.84534 30.322 9.73842C30.8981 9.20646 32.0066 8.10833 33.0911 6.9951C33.1222 6.96327 33.2638 6.81466 33.5627 6.50038C33.7815 6.27033 34.3454 5.65377 34.4233 5.5594C34.4797 5.49107 34.5718 5.38506 34.8739 5.04019C34.9971 4.89957 35.2261 4.62556 35.3828 4.43128C35.5395 4.23697 35.6746 4.07163 35.683 4.06384C35.6913 4.05605 35.7484 3.97958 35.8098 3.89391C35.8712 3.80824 35.9509 3.70772 35.987 3.67057C36.023 3.63338 36.0525 3.59288 36.0525 3.58053C36.0525 3.56818 36.0685 3.54094 36.0881 3.51998C36.151 3.45261 36.2928 3.26138 36.4093 3.08675C36.4716 2.99329 36.5297 2.91045 36.5384 2.90266C36.5611 2.8823 36.8133 2.48792 36.9684 2.23037C37.1351 1.9535 37.4841 1.28834 37.4627 1.28834C37.4539 1.28834 37.4604 1.26285 37.4772 1.2317C37.5215 1.14923 37.5019 1.16194 37.4122 1.27376Z" fill="#ED1E26"/>
</svg>
