<svg width="24" height="24" viewBox="0 0 24 24" fill="none" xmlns="http://www.w3.org/2000/svg">
<path d="M15.1441 14.7363C14.4485 16.0664 14.1246 17.0874 13.275 18.3164C13.2655 18.3307 13.4919 22.2377 13.5008 22.9989C14.3239 22.9983 14.591 23.0007 15.4149 22.9989C16.1104 22.9989 16.8007 22.9723 17.4963 22.9351C18.1122 22.8979 18.7175 22.7968 19.2963 22.568C20.0928 22.2541 20.6344 21.6954 20.8521 20.8601C20.9264 20.5835 20.9742 20.2962 20.9901 20.0089C21.1547 17.1305 19.2432 14.5288 16.4503 13.8265C16.1582 13.752 15.8556 13.7148 15.5476 13.6562C15.5005 14.0654 15.3243 14.397 15.1514 14.7225L15.1441 14.7363Z" fill="#0F50A4"/>
<path d="M8.22016 13.6641C8.26795 14.0897 8.44848 14.4196 8.6237 14.7494C9.31928 16.0795 9.50343 17.0845 10.3583 18.3135C10.3628 18.3226 10.0258 22.042 9.98675 22.998C9.98675 22.998 10.8016 22.9948 10.8047 22.9979C10.5316 22.998 10.258 22.998 9.98675 22.998C9.22512 22.998 8.48219 22.9975 7.82193 22.9961C6.9352 22.9961 6.05378 22.9695 5.18298 22.778C4.97059 22.7301 4.76351 22.6716 4.56174 22.5971C3.55289 22.2353 2.98475 21.5011 2.83607 20.4529C2.40598 17.4575 4.39183 14.5366 7.34936 13.8237C7.62547 13.7652 7.9175 13.7226 8.22016 13.6641Z" fill="#0F50A4"/>
<path d="M11.0821 18.5085C11.0821 18.5298 10.8047 23.0007 10.8047 23.0007L12.8162 22.9995C12.7631 22.1961 12.5742 16.9868 12.5264 16.1994C12.5264 16.1569 12.5742 16.0983 12.6113 16.0717C12.9034 15.8802 13.1157 15.6195 13.2219 15.279C13.2485 15.1939 13.2538 15.1034 13.275 14.9864C12.8078 15.1673 12.3618 15.2683 11.8892 15.2683C11.4113 15.2683 10.96 15.1673 10.5034 14.9917C10.5087 15.0715 10.5087 15.1194 10.5193 15.1726C10.5989 15.5556 10.806 15.8483 11.1299 16.0558C11.2255 16.1143 11.2467 16.1728 11.2414 16.2792C11.183 17.0241 11.1352 17.7636 11.0821 18.5085Z" fill="#0685CF"/>
<path d="M16.6787 5.91079C16.6787 6.15553 16.6787 6.40027 16.6787 6.63969C16.6787 6.7195 16.6999 6.75674 16.7796 6.78334C17.4221 7.0068 17.7566 7.48564 17.7513 8.16134C17.7513 8.45928 17.7406 8.75723 17.7566 9.04985C17.7884 9.78407 17.2309 10.3746 16.5194 10.4757C16.4663 10.481 16.4079 10.5183 16.3654 10.5609C16.1902 10.7205 16.0203 10.8801 15.8557 11.045C15.792 11.1089 15.7283 11.178 15.6911 11.2578C15.3141 12.0931 14.8256 12.8433 14.1194 13.4392C13.461 13.9925 12.7123 14.3224 11.8415 14.3118C11.0079 14.3011 10.2911 13.9819 9.66452 13.4552C8.84151 12.7635 8.31054 11.875 7.92823 10.8854C7.89107 10.7843 7.8539 10.6885 7.82204 10.5821C7.8008 10.5076 7.76363 10.4917 7.68929 10.4917C7.46629 10.4757 7.23266 10.481 7.02027 10.4225C6.39903 10.2576 6.01672 9.72554 6.01672 9.08177C6.01672 8.75723 6.01672 8.43268 6.01672 8.11345C6.01672 7.50692 6.35655 7.01744 6.92469 6.80995C7.03089 6.7727 7.06274 6.7195 7.06274 6.61309C7.06274 6.14489 7.04151 5.67137 7.07867 5.20317C7.21142 3.66557 7.99195 2.51103 9.28753 1.71829C11.4698 0.388176 14.369 0.957463 15.8451 2.99519C16.3867 3.74005 16.6628 4.58068 16.6787 5.50112C16.6787 5.63413 16.6787 5.77246 16.6787 5.91079ZM8.08753 8.61889C8.0716 8.62421 8.05567 8.63486 8.03974 8.64018C8.05567 8.9328 8.03974 9.22542 8.09284 9.51273C8.15655 9.85324 8.25744 10.1937 8.37425 10.5236C8.70346 11.4387 9.18664 12.2581 9.94594 12.8806C10.7318 13.519 11.6132 13.785 12.6114 13.5137C13.376 13.3062 13.9601 12.8274 14.4433 12.2208C14.5867 12.0399 14.7141 11.8431 14.8681 11.6303C14.815 11.6356 14.799 11.6356 14.7831 11.6409C14.2044 11.8644 13.6097 12.0027 12.9937 12.0612C12.9513 12.0665 12.8982 12.1038 12.8716 12.141C12.7389 12.3113 12.569 12.4017 12.3566 12.4017C12.0805 12.4017 11.799 12.407 11.5229 12.4017C11.1672 12.3964 10.8964 12.1197 10.8964 11.7739C10.8964 11.4281 11.1672 11.1514 11.5176 11.1461C11.799 11.1408 12.0858 11.1301 12.3672 11.1514C12.5052 11.1621 12.6698 11.2099 12.7601 11.3057C12.8822 11.4281 12.9937 11.4334 13.1371 11.4068C13.1743 11.4015 13.2167 11.3962 13.2539 11.3908C13.9336 11.2898 14.5813 11.0929 15.176 10.7364C15.2822 10.6726 15.3619 10.5981 15.399 10.4704C15.4787 10.1778 15.5955 9.88516 15.638 9.58721C15.6805 9.28395 15.6486 8.96472 15.6486 8.62953C15.4893 8.70934 15.346 8.77851 15.1867 8.85831C15.2132 8.61889 15.2398 8.39012 15.2557 8.16134C15.2929 7.60801 15.3088 7.05469 15.1654 6.512C15.1017 6.26726 15.0008 6.0438 14.7831 5.89483C14.7194 5.85227 14.6663 5.84695 14.5867 5.87887C14.2415 6.01188 13.8911 6.14489 13.5406 6.2513C12.9778 6.42155 12.3937 6.53328 11.8044 6.51732C10.8858 6.4854 10.015 6.2513 9.17602 5.88951C9.08576 5.85227 9.02204 5.85759 8.94771 5.91079C8.74593 6.06508 8.65036 6.2779 8.58664 6.512C8.43797 7.05469 8.45921 7.60801 8.49107 8.16134C8.507 8.39012 8.53354 8.62421 8.56009 8.85831C8.39549 8.76787 8.24151 8.69338 8.08753 8.61889ZM8.12469 4.95843C9.03797 3.66557 10.2433 2.90474 11.8415 2.8941C13.4344 2.87814 14.6557 3.61768 15.5955 4.89991C15.3937 3.57512 14.0557 1.96835 11.8946 1.95238C9.72824 1.93642 8.31585 3.5432 8.12469 4.95843Z" fill="#0F50A4"/>
</svg>
