<svg width="24" height="24" viewBox="0 0 24 24" fill="none" xmlns="http://www.w3.org/2000/svg">
<path d="M21.2619 16.1218C21.1036 16.4582 20.8365 16.572 20.4704 16.5621C19.8965 16.5423 19.3227 16.5621 18.7488 16.5571C18.3332 16.5522 18.0562 16.2751 18.1156 15.8942C18.1354 15.7656 18.2145 15.632 18.2986 15.5232C18.3976 15.3995 18.5311 15.3055 18.6647 15.1818C18.3036 14.9493 17.9424 14.8158 17.5565 14.791C16.4682 14.7119 15.6371 15.1472 15.0682 16.0773C14.8456 16.4384 14.5636 16.5967 14.2173 16.5423C13.6731 16.4582 13.3713 15.8843 13.6335 15.4045C14.2667 14.2468 15.2314 13.5196 16.5276 13.2673C17.6802 13.0447 18.7438 13.2921 19.7135 13.955C19.7382 13.9698 19.7629 13.9847 19.8124 14.0143C19.9212 13.8956 20.035 13.7868 20.1389 13.6631C20.5198 13.203 21.1036 13.3514 21.257 13.856C21.2619 14.6179 21.2619 15.3698 21.2619 16.1218Z" fill="#0685CF"/>
<path d="M15.9536 19.5152C16.3098 19.7428 16.666 19.8764 17.0518 19.9011C18.1402 19.9753 18.9713 19.54 19.5402 18.6149C19.7134 18.3329 19.931 18.1548 20.2674 18.1499C20.8809 18.1449 21.2618 18.793 20.9501 19.3371C20.3466 20.4057 19.4512 21.0983 18.2589 21.3852C17.0172 21.6821 15.8695 21.4248 14.7762 20.658C14.6575 20.7916 14.5387 20.9351 14.4101 21.0736C14.2172 21.2813 13.9797 21.3654 13.7076 21.2517C13.4454 21.1379 13.3415 20.9202 13.3465 20.6432C13.3514 20.0248 13.3465 19.4064 13.3465 18.788C13.3465 18.3675 13.579 18.135 14.0044 18.135C14.6179 18.1301 15.2264 18.135 15.8398 18.135C16.1267 18.135 16.3494 18.2389 16.4631 18.511C16.572 18.7781 16.4879 19.0057 16.285 19.1986C16.1812 19.3025 16.0723 19.4015 15.9536 19.5152Z" fill="#0685CF"/>
<path fill-rule="evenodd" clip-rule="evenodd" d="M9.68346 2.54727C9.60706 2.53188 9.53065 2.51649 9.4548 2.5C9.1926 2.5 8.93535 2.5 8.67316 2.50495C8.65733 2.5089 8.6415 2.51445 8.62567 2.51999C8.60192 2.5283 8.57818 2.53661 8.55443 2.53958C6.96642 2.73251 5.58619 3.95444 5.23495 5.51771C5.15579 5.87885 5.13601 6.24988 5.12117 6.62091C5.10736 6.94538 5.11041 7.27227 5.11352 7.60493C5.11486 7.74902 5.11622 7.89419 5.11622 8.04072C5.04502 8.04072 4.97673 8.04014 4.91035 8.03957C4.783 8.03849 4.66268 8.03746 4.54236 8.04072C3.50347 8.06545 2.74163 8.8273 2.74163 9.86124C2.73668 12.0825 2.73668 14.2988 2.74163 16.52C2.74163 16.6783 2.76141 16.8415 2.80099 16.9949C3.01371 17.8161 3.71125 18.3306 4.61162 18.3306H10.8993C11.1071 18.3306 11.1945 18.3306 11.2819 18.33C11.3692 18.3294 11.4566 18.3281 11.6644 18.3257C11.7188 18.3257 11.8079 18.2861 11.8178 18.2465C11.9167 17.826 12.1344 17.4698 12.4263 17.1582C12.4015 17.1186 12.3867 17.0939 12.3718 17.0691C11.8524 16.2331 11.8227 15.3871 12.3075 14.5263C12.8913 13.4973 14.1891 12.7157 15.2528 12.1963C15.3616 12.1468 15.4061 12.0924 15.4061 11.9637C15.4005 11.568 15.4013 11.1722 15.4021 10.7765C15.4027 10.4796 15.4033 10.1828 15.4012 9.88597C15.3962 8.79267 14.6393 8.04072 13.5411 8.03577H13.0266V7.8082C13.0266 7.6856 13.0269 7.56331 13.0272 7.44118C13.0281 7.07541 13.029 6.71103 13.0216 6.34387C12.9821 4.62229 11.8047 3.10849 10.1375 2.64841C9.98908 2.60884 9.83627 2.57805 9.68346 2.54727ZM11.4362 7.45166C11.4325 7.64156 11.4287 7.83277 11.4287 8.02587H6.70423C6.70423 7.88063 6.70392 7.736 6.7036 7.59192C6.70268 7.16185 6.70176 6.73663 6.70917 6.31419C6.70917 6.14599 6.7438 5.96789 6.78833 5.80464C7.09505 4.6965 8.15867 3.98907 9.33607 4.09296C10.4046 4.18695 11.3347 5.09721 11.4188 6.19546C11.4529 6.61202 11.4447 7.02859 11.4362 7.45166ZM8.37201 14.8936H10.1294L9.75282 13.3454C10.2131 13.0106 10.9328 12.1654 10.1294 11.4625C9.04149 10.7094 8.24648 11.5043 8.12095 11.839C7.99542 12.1319 7.94521 12.8432 8.74859 13.3454L8.37201 14.8936Z" fill="#0F50A4"/>
</svg>
