<svg width="24" height="24" viewBox="0 0 24 24" fill="none" xmlns="http://www.w3.org/2000/svg">
<path fill-rule="evenodd" clip-rule="evenodd" d="M14.0678 10.472C14.0425 10.002 14.0679 9.55138 14.1523 9.125H3.92105C2.86008 9.125 2 9.98508 2 11.046V16.0707C2 17.1317 2.86008 17.9918 3.92105 17.9918H13.2686C13.093 17.7802 13 17.4822 13 17.1097V11.8089C13 11.0127 13.2953 10.6338 14.0678 10.472ZM10.029 13.9493V14.7697L10.0263 14.7694C10.0263 14.812 10.0351 14.8541 10.0521 14.8935C10.0691 14.9328 10.094 14.9686 10.1255 14.9987C10.1569 15.0288 10.1943 15.0526 10.2353 15.0689C10.2764 15.0852 10.3205 15.0936 10.3649 15.0936C10.4094 15.0936 10.4534 15.0852 10.4945 15.0689C10.5356 15.0526 10.5729 15.0288 10.6044 14.9987C10.6358 14.9686 10.6608 14.9328 10.6778 14.8935C10.6948 14.8541 10.7036 14.812 10.7036 14.7694V13.949L11.4456 14.3592C11.4841 14.3814 11.5268 14.3959 11.5712 14.4021C11.6156 14.4083 11.6609 14.4059 11.7043 14.3951C11.7478 14.3844 11.7886 14.3654 11.8243 14.3394C11.86 14.3134 11.89 14.2809 11.9124 14.2436C11.9349 14.2064 11.9493 14.1653 11.955 14.1227C11.9607 14.0801 11.9574 14.0368 11.9454 13.9954C11.9335 13.954 11.913 13.9153 11.8852 13.8815C11.8574 13.8477 11.8229 13.8196 11.7836 13.7988L11.0416 13.3886L11.7836 12.9784C11.8236 12.958 11.8588 12.9301 11.8873 12.8964C11.9158 12.8627 11.9369 12.8239 11.9494 12.7822C11.9619 12.7406 11.9655 12.6969 11.96 12.6539C11.9546 12.6109 11.9401 12.5693 11.9176 12.5317C11.895 12.4941 11.8648 12.4613 11.8288 12.4351C11.7927 12.4089 11.7515 12.3899 11.7076 12.3792C11.6637 12.3686 11.618 12.3665 11.5733 12.373C11.5285 12.3796 11.4856 12.3947 11.4471 12.4174L10.7059 12.8282V12.0078C10.7059 11.9218 10.6702 11.8393 10.6067 11.7785C10.5432 11.7178 10.4571 11.6836 10.3673 11.6836C10.2775 11.6836 10.1913 11.7178 10.1278 11.7785C10.0643 11.8393 10.0287 11.9218 10.0287 12.0078V12.8276L9.28691 12.4174C9.2092 12.3745 9.11687 12.3629 9.03023 12.3851C8.94359 12.4074 8.86973 12.4617 8.8249 12.5361C8.78007 12.6105 8.76795 12.6989 8.7912 12.7818C8.81445 12.8648 8.87116 12.9355 8.94887 12.9784L9.69091 13.3886L8.94887 13.7988C8.8712 13.8417 8.81452 13.9124 8.7913 13.9953C8.76808 14.0783 8.78022 14.1666 8.82505 14.241C8.86987 14.3153 8.94372 14.3696 9.03033 14.3918C9.11695 14.4141 9.20924 14.4024 9.28691 14.3595L10.029 13.9493ZM5.22441 13.9493V14.7697H5.22323C5.22323 14.8557 5.25891 14.9381 5.32241 14.9989C5.38592 15.0597 5.47205 15.0939 5.56186 15.0939C5.65167 15.0939 5.7378 15.0597 5.80131 14.9989C5.86482 14.9381 5.90049 14.8557 5.90049 14.7697V13.9493L6.64283 14.3592C6.68131 14.3814 6.724 14.3959 6.76842 14.4021C6.81284 14.4083 6.85809 14.4059 6.90155 14.3951C6.945 14.3844 6.98578 14.3654 7.02151 14.3394C7.05723 14.3134 7.08719 14.2809 7.10964 14.2436C7.13208 14.2064 7.14656 14.1653 7.15223 14.1227C7.1579 14.0801 7.15465 14.0368 7.14266 13.9954C7.13068 13.954 7.1102 13.9153 7.08242 13.8815C7.05464 13.8477 7.02012 13.8196 6.98087 13.7988L6.23853 13.3889L6.98087 12.9784C7.05858 12.9355 7.11529 12.8648 7.13854 12.7818C7.16179 12.6989 7.14967 12.6105 7.10484 12.5361C7.06001 12.4617 6.98615 12.4074 6.89951 12.3851C6.81287 12.3629 6.72054 12.3745 6.64283 12.4174L5.90138 12.8282V12.0078C5.90138 11.9218 5.8657 11.8393 5.80219 11.7785C5.73869 11.7178 5.65256 11.6836 5.56275 11.6836C5.47293 11.6836 5.3868 11.7178 5.3233 11.7785C5.25979 11.8393 5.22411 11.9218 5.22411 12.0078V12.8276L4.48237 12.4174C4.40466 12.3745 4.31233 12.3629 4.22569 12.3851C4.13904 12.4074 4.06518 12.4617 4.02036 12.5361C3.97553 12.6105 3.96341 12.6989 3.98665 12.7818C4.0099 12.8648 4.06662 12.9355 4.14432 12.9784L4.88637 13.3886L4.14432 13.7988C4.06666 13.8417 4.00998 13.9124 3.98676 13.9953C3.96354 14.0783 3.97568 14.1666 4.0205 14.241C4.06533 14.3153 4.13917 14.3696 4.22579 14.3918C4.31241 14.4141 4.4047 14.4024 4.48237 14.3595L5.22441 13.9493Z" fill="#0F50A4"/>
<path d="M21.5742 10.9668C22.0546 11.0347 22.3808 11.2724 22.4955 11.7668C22.5206 11.8724 22.5206 11.9818 22.5242 12.0913C22.5242 13.6799 22.5278 15.2684 22.5242 16.857C22.5242 17.5589 22.1442 17.9551 21.4775 17.9589C19.3303 17.9626 17.1867 17.9626 15.0395 17.9589C14.3764 17.9589 14 17.5551 14 16.8495C14 15.2835 14 13.7176 14 12.1516C14 11.446 14.2617 11.1102 14.9463 10.9668C14.8782 9.69894 15.2259 8.58957 16.1974 7.7632C16.8175 7.23493 17.5344 6.98212 18.3374 7.00098C19.3231 7.0274 20.1404 7.44247 20.7856 8.22356C21.4309 9.00842 21.6316 9.94421 21.5742 10.9668ZM19.6708 10.9706C19.7389 10.1857 19.592 9.5216 18.8822 9.14803C18.3696 8.88012 17.8606 8.93672 17.4018 9.29897C16.8677 9.72536 16.7888 10.3216 16.8569 10.9668C17.8033 10.9706 18.7317 10.9706 19.6708 10.9706ZM18.2728 12.9818C17.8749 12.978 17.5165 13.2346 17.3803 13.6233C17.2441 14.0081 17.3552 14.4194 17.6455 14.71C17.7208 14.7817 17.7638 14.91 17.7817 15.0194C17.8104 15.2118 17.7925 15.4081 17.8212 15.6005C17.8534 15.8118 18.0506 15.959 18.2549 15.9627C18.4664 15.9665 18.6707 15.8194 18.7066 15.5967C18.7388 15.4081 18.7173 15.2081 18.746 15.0156C18.7639 14.9062 18.8105 14.7817 18.8858 14.7062C19.1762 14.4194 19.2837 14.0044 19.1475 13.6195C19.0113 13.2421 18.66 12.9856 18.2728 12.9818Z" fill="#0685CF"/>
</svg>
