<svg width="20" height="20" viewBox="0 0 20 20" fill="none" xmlns="http://www.w3.org/2000/svg">
<path fill-rule="evenodd" clip-rule="evenodd" d="M3 0H6.36377V1.3H3C2.06112 1.3 1.3 2.06112 1.3 3V6.36328H0V3C0 1.34315 1.34315 0 3 0ZM0 13.636V17C0 18.6569 1.34315 20 3 20H6.36377V18.7H3C2.06112 18.7 1.3 17.9389 1.3 17V13.636H0ZM18.7 13.636V17C18.7 17.9389 17.9389 18.7 17 18.7H13.6365V20H17C18.6569 20 20 18.6569 20 17V13.636H18.7ZM20 6.36328V3C20 1.34315 18.6569 0 17 0H13.6365V1.3H17C17.9389 1.3 18.7 2.06112 18.7 3V6.36328H20Z" fill="#0685CF"/>
<path d="M9.98737 14.8343C9.25756 14.8343 8.53129 14.8378 7.80148 14.8343C6.74928 14.8307 6.03364 14.0985 6.00176 13.0463C5.94862 11.5001 7.1071 11.2937 8.38958 11.1515C9.59058 11.02 10.7809 10.9809 11.9642 11.2226C13.2751 11.4928 14.2706 11.9267 13.934 13.5226C13.771 14.2904 13.0837 14.8236 12.2973 14.8307C11.5249 14.8378 10.7561 14.8307 9.98737 14.8343Z" fill="#0F50A4"/>
<path d="M10.0066 10.3818C8.21048 10.3861 6.74049 8.96269 6.72744 7.21215C6.71439 5.44887 8.18438 4.00426 9.9936 4.00001C11.8072 3.99576 13.2772 5.43188 13.2728 7.19941C13.2685 8.94994 11.8115 10.3733 10.0066 10.3818Z" fill="#0F50A4"/>
</svg>
