<svg width="24" height="24" viewBox="0 0 24 24" fill="none" xmlns="http://www.w3.org/2000/svg">
<path fill-rule="evenodd" clip-rule="evenodd" d="M5 2H8.36377V3.3H5C4.06112 3.3 3.3 4.06112 3.3 5V8.36328H2V5C2 3.34315 3.34315 2 5 2ZM2 15.636V19C2 20.6569 3.34315 22 5 22H8.36377V20.7H5C4.06112 20.7 3.3 19.9389 3.3 19V15.636H2ZM20.7 15.636V19C20.7 19.9389 19.9389 20.7 19 20.7H15.6365V22H19C20.6569 22 22 20.6569 22 19V15.636H20.7ZM22 8.36328V5C22 3.34315 20.6569 2 19 2H15.6365V3.3H19C19.9389 3.3 20.7 4.06112 20.7 5V8.36328H22Z" fill="#0685CF"/>
<path d="M15.8735 6.97479C15.8202 6.97479 15.7668 6.96146 15.7202 6.93479C14.4402 6.27479 13.3335 5.99479 12.0068 5.99479C10.6868 5.99479 9.43349 6.30812 8.29349 6.93479C8.13349 7.02146 7.93349 6.96146 7.84015 6.80146C7.75349 6.64146 7.81349 6.43479 7.97349 6.34812C9.21349 5.67479 10.5735 5.32812 12.0068 5.32812C13.4268 5.32812 14.6668 5.64146 16.0268 6.34146C16.1935 6.42812 16.2535 6.62812 16.1668 6.78812C16.1068 6.90812 15.9935 6.97479 15.8735 6.97479ZM6.33349 10.4748C6.26682 10.4748 6.20015 10.4548 6.14015 10.4148C5.98682 10.3081 5.95349 10.1015 6.06015 9.94812C6.72015 9.01479 7.56015 8.28146 8.56015 7.76812C10.6535 6.68812 13.3335 6.68146 15.4335 7.76146C16.4335 8.27479 17.2735 9.00146 17.9335 9.92812C18.0402 10.0748 18.0068 10.2881 17.8535 10.3948C17.7002 10.5015 17.4935 10.4681 17.3868 10.3148C16.7868 9.47479 16.0268 8.81479 15.1268 8.35479C13.2135 7.37479 10.7668 7.37479 8.86015 8.36146C7.95349 8.82812 7.19349 9.49479 6.59349 10.3348C6.54015 10.4281 6.44015 10.4748 6.33349 10.4748ZM10.5002 18.5215C10.4135 18.5215 10.3268 18.4881 10.2668 18.4215C9.68682 17.8415 9.37349 17.4681 8.92682 16.6615C8.46682 15.8415 8.22682 14.8415 8.22682 13.7681C8.22682 11.7881 9.92015 10.1748 12.0002 10.1748C14.0802 10.1748 15.7735 11.7881 15.7735 13.7681C15.7735 13.9548 15.6268 14.1015 15.4402 14.1015C15.2535 14.1015 15.1068 13.9548 15.1068 13.7681C15.1068 12.1548 13.7135 10.8415 12.0002 10.8415C10.2868 10.8415 8.89349 12.1548 8.89349 13.7681C8.89349 14.7281 9.10682 15.6148 9.51349 16.3348C9.94015 17.1015 10.2335 17.4281 10.7468 17.9481C10.8735 18.0815 10.8735 18.2881 10.7468 18.4215C10.6735 18.4881 10.5868 18.5215 10.5002 18.5215ZM15.2802 17.2881C14.4868 17.2881 13.7868 17.0881 13.2135 16.6948C12.2202 16.0215 11.6268 14.9281 11.6268 13.7681C11.6268 13.5815 11.7735 13.4348 11.9602 13.4348C12.1468 13.4348 12.2935 13.5815 12.2935 13.7681C12.2935 14.7081 12.7735 15.5948 13.5868 16.1415C14.0602 16.4615 14.6135 16.6148 15.2802 16.6148C15.4402 16.6148 15.7068 16.5948 15.9735 16.5481C16.1535 16.5148 16.3268 16.6348 16.3602 16.8215C16.3935 17.0015 16.2735 17.1748 16.0868 17.2081C15.7068 17.2815 15.3735 17.2881 15.2802 17.2881ZM13.9402 18.6615C13.9135 18.6615 13.8802 18.6548 13.8535 18.6481C12.7935 18.3548 12.1002 17.9615 11.3735 17.2481C10.4402 16.3215 9.92682 15.0881 9.92682 13.7681C9.92682 12.6881 10.8468 11.8081 11.9802 11.8081C13.1135 11.8081 14.0335 12.6881 14.0335 13.7681C14.0335 14.4815 14.6535 15.0615 15.4202 15.0615C16.1868 15.0615 16.8068 14.4815 16.8068 13.7681C16.8068 11.2548 14.6402 9.21479 11.9735 9.21479C10.0802 9.21479 8.34682 10.2681 7.56682 11.9015C7.30682 12.4415 7.17349 13.0748 7.17349 13.7681C7.17349 14.2881 7.22015 15.1081 7.62015 16.1748C7.68682 16.3481 7.60015 16.5415 7.42682 16.6015C7.25349 16.6681 7.06015 16.5748 7.00015 16.4081C6.67349 15.5348 6.51349 14.6681 6.51349 13.7681C6.51349 12.9681 6.66682 12.2415 6.96682 11.6081C7.85349 9.74812 9.82015 8.54146 11.9735 8.54146C15.0068 8.54146 17.4735 10.8815 17.4735 13.7615C17.4735 14.8415 16.5535 15.7215 15.4202 15.7215C14.2868 15.7215 13.3668 14.8415 13.3668 13.7615C13.3668 13.0481 12.7468 12.4681 11.9802 12.4681C11.2135 12.4681 10.5935 13.0481 10.5935 13.7615C10.5935 14.9015 11.0335 15.9681 11.8402 16.7681C12.4735 17.3948 13.0802 17.7415 14.0202 18.0015C14.2002 18.0481 14.3002 18.2348 14.2535 18.4081C14.2202 18.5615 14.0802 18.6615 13.9402 18.6615Z" fill="#0F50A4" stroke="#0F50A4" stroke-width="0.4"/>
</svg>
