<svg width="24" height="24" viewBox="0 0 24 24" fill="none" xmlns="http://www.w3.org/2000/svg">
<path fill-rule="evenodd" clip-rule="evenodd" d="M12 21.5C17.2467 21.5 21.5 17.2467 21.5 12C21.5 6.75329 17.2467 2.5 12 2.5C6.75329 2.5 2.5 6.75329 2.5 12C2.5 17.2467 6.75329 21.5 12 21.5ZM11.9998 19.6008C16.1972 19.6008 19.5998 16.1982 19.5998 12.0008C19.5998 7.80346 16.1972 4.40082 11.9998 4.40082C7.80243 4.40082 4.39979 7.80346 4.39979 12.0008C4.39979 16.1982 7.80243 19.6008 11.9998 19.6008Z" fill="#0F50A4"/>
<path fill-rule="evenodd" clip-rule="evenodd" d="M18.3646 11.9978C18.3646 15.5131 15.5149 18.3628 11.9996 18.3628C8.48435 18.3628 5.63464 15.5131 5.63464 11.9978C5.63464 8.48252 8.48435 5.63281 11.9996 5.63281C15.5149 5.63281 18.3646 8.48252 18.3646 11.9978ZM12.8815 13.8382L12.8815 13.838C12.8265 13.1575 12.7693 12.4505 12.7025 11.7454C12.6739 11.4526 12.6293 11.1566 12.5497 10.8733C12.4702 10.5805 12.2569 10.4532 11.9641 10.4564C11.6967 10.4596 11.5058 10.5901 11.423 10.8829C11.3498 11.1343 11.2957 11.3985 11.2766 11.6595C11.2034 12.6971 11.1461 13.7315 11.092 14.7691C11.0666 15.256 11.3116 15.6539 11.719 15.7653C12.2919 15.9212 12.7662 15.7589 12.8807 14.976C12.8973 14.8685 12.9044 14.7597 12.9126 14.6348C12.917 14.5673 12.9218 14.4951 12.9285 14.4158C12.9129 14.2259 12.8973 14.0331 12.8815 13.8382ZM12.0058 8.17971C12.5118 8.17971 12.9128 8.5712 12.916 9.06771C12.9192 9.58332 12.5277 9.98117 12.0185 9.98436C11.4933 9.98754 11.0923 9.58969 11.0923 9.06135C11.0891 8.56801 11.4933 8.17971 12.0058 8.17971Z" fill="#0685CF"/>
</svg>
