<svg width="24" height="24" viewBox="0 0 24 24" fill="none" xmlns="http://www.w3.org/2000/svg">
<path d="M3.90082 3C6.81992 3 9.73902 3 12.6581 3C12.7038 3.01055 12.746 3.02814 12.7918 3.03517C13.7695 3.2075 14.5854 4.0762 14.6206 5.03985C14.6522 5.87689 14.6382 5.63535 14.6276 6.47239C14.6241 6.78188 14.4447 6.99994 14.1599 7.116C13.678 7.31295 13.1505 6.96477 13.1399 6.43722C13.1294 5.71624 13.1364 6.07736 13.1364 5.35638C13.1364 4.80421 12.841 4.50527 12.2959 4.50527C11.2513 4.50527 10.2103 4.50527 9.16575 4.50527C9.11651 4.50527 9.06375 4.50879 9.00748 4.5123C9.02155 4.52989 9.02507 4.54396 9.0321 4.54747C9.85156 4.89214 10.1294 5.31418 10.1294 6.20749C10.1294 9.8124 10.1294 13.4173 10.1294 17.0222C10.1294 17.0961 10.1294 17.1699 10.1294 17.2543C10.2244 17.2543 10.2877 17.2543 10.351 17.2543C10.9559 17.2543 11.5608 17.2297 12.1622 17.2614C12.9008 17.2965 13.161 16.8569 13.1435 16.2872C13.1188 15.3903 13.1364 15.4856 13.1364 14.5888C13.1364 14.4903 13.1399 14.3883 13.1646 14.2934C13.2595 13.9452 13.6042 13.7095 13.9488 13.7517C14.3392 13.7975 14.6241 14.0859 14.6241 14.4762C14.6311 15.4856 14.6347 15.4994 14.6241 16.5087C14.6136 17.7854 13.6253 18.7526 12.3451 18.7561C11.6698 18.7596 10.9981 18.7561 10.3228 18.7561C10.263 18.7561 10.1997 18.7561 10.1259 18.7561C10.1259 18.9917 10.1294 19.2027 10.1259 19.4138C10.1224 19.5439 10.1224 19.674 10.0977 19.7971C9.90783 20.7115 9.011 21.2145 8.1001 20.912C6.65462 20.4337 5.21266 19.9519 3.77069 19.47C3.00399 19.2133 2.6347 18.6998 2.6347 17.8804C2.6347 13.4665 2.6347 9.05273 2.6347 4.63891C2.6347 4.58616 2.6347 4.53341 2.6347 4.48065C2.66636 3.84056 2.97937 3.38687 3.55615 3.11958C3.66518 3.06682 3.78476 3.03869 3.90082 3Z" fill="#0F50A4"/>
<path d="M21.3619 10.6734C21.2247 10.8598 21.1027 11.0581 20.9504 11.2256C19.9148 12.3639 19.1948 13.1289 18.1931 14.2599C18.0067 14.4703 17.764 14.5694 17.4826 14.5167C17.1098 14.4498 16.8636 14.1474 16.8636 13.7535C16.8601 13.0852 16.8636 12.237 16.8636 11.5688C16.8636 11.5055 16.8636 11.6222 16.8636 11.5307C16.7863 11.5307 16.7195 11.5307 16.6491 11.5307C15.7417 11.5307 13.9308 11.5307 13.0234 11.5307C12.49 11.5688 12.1386 10.97 12.1386 10.4793C12.1386 9.98869 12.4818 9.4925 12.9848 9.48898C13.9062 9.48546 15.7241 9.48898 16.6456 9.48898C16.7089 9.48898 16.7722 9.48898 16.8636 9.48898C16.8636 9.41864 16.8636 9.35533 16.8636 9.29554C16.8636 8.63435 16.8672 7.96964 16.8636 7.30845C16.8601 6.95675 17.0008 6.69298 17.3244 6.54878C17.6198 6.41513 17.9258 6.49251 18.1896 6.75276C19.1948 7.81891 20.0048 8.66752 21.1086 9.9489C21.2109 10.0676 21.281 10.2197 21.3654 10.3569C21.3619 10.4624 21.3619 10.5679 21.3619 10.6734Z" fill="#0685CF"/>
</svg>
