<svg width="20" height="20" viewBox="0 0 20 20" fill="none" xmlns="http://www.w3.org/2000/svg">
<path fill-rule="evenodd" clip-rule="evenodd" d="M12.481 1.87632C12.4582 1.90246 12.4358 1.9289 12.4138 1.95563C11.8431 2.64706 11.5004 3.5335 11.5004 4.5C11.5004 6.70914 13.2912 8.5 15.5004 8.5C15.8043 8.5 16.1002 8.46611 16.3847 8.40191V11.9988C16.3847 12.0359 16.4151 12.0663 16.4522 12.0663C17.3366 12.0663 18.0558 12.7854 18.0558 13.6699C18.0558 14.5543 17.3347 15.2735 16.4503 15.2735H3.54928C2.66483 15.2735 1.94568 14.5543 1.94568 13.6699C1.94568 12.7854 2.66483 12.0663 3.54928 12.0663C3.58633 12.0663 3.61673 12.0359 3.61673 11.9988V7.759C3.61673 4.23925 6.48003 1.375 10.0007 1.375C10.8799 1.375 11.7181 1.55356 12.481 1.87632Z" fill="#0F50A4"/>
<path d="M9.99988 18.4468C8.95488 18.4468 7.90988 18.0487 7.11378 17.2536C7.00704 17.1467 6.94708 17.0018 6.94708 16.8508C6.94708 16.6997 7.00704 16.5549 7.11378 16.448C7.22066 16.3412 7.36553 16.2813 7.51658 16.2813C7.66763 16.2813 7.81251 16.3412 7.91938 16.448C9.06603 17.5946 10.9328 17.5946 12.0794 16.448C12.3017 16.2257 12.6627 16.2257 12.886 16.448C13.1092 16.6703 13.1083 17.0313 12.886 17.2545C12.0899 18.0487 11.0449 18.4468 9.99988 18.4468Z" fill="#0F50A4"/>
<circle cx="15.5004" cy="4.5" r="3" fill="#0685CF"/>
</svg>
