<svg width="24" height="24" viewBox="0 0 24 24" fill="none" xmlns="http://www.w3.org/2000/svg">
<path fill-rule="evenodd" clip-rule="evenodd" d="M11.5466 15.2791C11.86 15.0863 12.257 14.6662 12.1734 13.9559C12.1676 13.9268 12.149 13.8444 12.1212 13.7469C12.1187 13.7383 12.1158 13.7285 12.1126 13.7178C12.0706 13.5764 11.9768 13.2608 12.1386 13.0505C12.3127 12.8241 12.9917 12.3714 13.4967 12.1625C13.9789 11.9629 14.1276 12.0493 14.2462 12.1181C14.2518 12.1213 14.2573 12.1245 14.2628 12.1277C14.3603 12.1834 14.4195 12.2553 14.4369 12.2843C14.5878 12.4642 15.0254 12.8206 15.5686 12.8067C16.1118 12.7927 16.4682 12.4642 16.5784 12.3017C16.7061 12.116 17.1356 11.856 17.8321 12.3017C18.1338 12.4758 18.7862 12.8833 18.9812 13.1201C19.1066 13.2872 19.0915 13.5379 19.0682 13.6424C18.9986 13.892 18.9011 14.4607 19.0682 14.7393C19.1495 14.9714 19.4826 15.4601 20.1652 15.5576C20.3335 15.5808 20.6303 15.7317 20.6875 16.2018C20.7397 16.6313 20.785 17.6191 20.5482 18.1345C20.4842 18.2738 20.3567 18.3608 20.0433 18.4131C19.6254 18.4827 18.8175 18.8692 18.929 19.8582C18.9406 19.9627 18.9742 20.196 19.016 20.2935C19.0682 20.4153 19.1553 20.7462 18.7374 21.0944C18.3196 21.4426 17.1878 22.3132 16.6829 21.6341C16.3637 21.2453 15.492 20.687 14.5587 21.5645C14.402 21.7734 14.12 22.1042 13.6882 21.8953C13.3864 21.756 12.6609 21.3799 12.1734 20.9899C12.0689 20.9029 11.9018 20.6138 12.0689 20.1542C12.2779 19.5796 12.1212 18.5523 10.9024 18.3434C10.7399 18.3028 10.401 18.1414 10.3452 17.8211C10.2756 17.4206 10.2059 16.7067 10.3801 15.9929C10.4149 15.8304 10.5785 15.5019 10.9546 15.488C11.0707 15.4832 11.3203 15.4183 11.5466 15.2791ZM15.4942 18.5865C16.3789 18.5865 17.096 17.8693 17.096 16.9846C17.096 16.1 16.3789 15.3828 15.4942 15.3828C14.6095 15.3828 13.8924 16.1 13.8924 16.9846C13.8924 17.8693 14.6095 18.5865 15.4942 18.5865Z" fill="#0685CF"/>
<path fill-rule="evenodd" clip-rule="evenodd" d="M17.4281 5.75209V3.92804C17.493 3.91695 17.5358 3.91062 17.5817 3.90745C18.1265 3.80928 18.4638 3.29785 18.3403 2.75792C18.2358 2.3019 17.8636 2.03906 17.3125 2.03906C13.6066 2.03906 9.89911 2.03906 6.19322 2.04065C6.01585 2.04065 5.83689 2.04223 5.66426 2.07231C4.24684 2.3209 3.27602 3.46411 3.27444 4.90657C3.26811 9.28145 3.27127 13.6579 3.27444 18.0344C3.27444 18.2244 3.29186 18.4176 3.32987 18.6044C3.61019 19.9724 4.73938 20.8876 6.1568 20.8908C7.86877 20.894 9.58002 20.8936 11.2915 20.893C11.2214 20.6043 11.2314 20.2628 11.3641 19.8979C11.408 19.777 11.4139 19.5844 11.3413 19.4286C11.288 19.3142 11.1622 19.1489 10.7757 19.0826L10.7479 19.0779L10.7205 19.071C10.553 19.0292 10.3318 18.9383 10.1288 18.7834C9.92221 18.6258 9.67681 18.3549 9.60632 17.9496C9.52844 17.5018 9.44326 16.6761 9.64941 15.8234C9.69188 15.635 9.79309 15.3961 9.97795 15.1874C10.1787 14.9608 10.4904 14.7603 10.908 14.7393L10.9126 14.7384C10.9269 14.7355 10.9492 14.7299 10.9773 14.7207C11.0351 14.7019 11.0985 14.6742 11.1536 14.6403C11.2293 14.5938 11.3089 14.5225 11.3621 14.4318C11.4064 14.3563 11.4461 14.2462 11.4317 14.075L11.4268 14.0542C11.4201 14.0265 11.4112 13.9923 11.4007 13.9555L11.3937 13.9314L11.3911 13.9229L11.3911 13.9229C11.3692 13.8493 11.3152 13.6685 11.3009 13.4616C11.2864 13.2502 11.305 12.9041 11.5441 12.5932C11.7161 12.3697 12.0277 12.1403 12.2813 11.9735C12.5624 11.7884 12.9011 11.5972 13.2099 11.4695C13.5009 11.3491 13.7755 11.278 14.0428 11.2905C14.3386 11.3043 14.535 11.4185 14.618 11.4667L14.6849 11.5056L14.9739 11.7575L15.0115 11.8024C15.0281 11.8221 15.1045 11.898 15.222 11.9638C15.3355 12.0273 15.4476 12.0595 15.5494 12.0569C15.67 12.0538 15.7684 12.0165 15.8453 11.9696C15.9108 11.9296 15.9472 11.891 15.9567 11.8809C15.9597 11.8777 15.96 11.8773 15.9578 11.8806L15.9604 11.8768C16.1406 11.6148 16.4615 11.388 16.8775 11.3237C17.303 11.258 17.7614 11.37 18.2211 11.6603C18.2654 11.686 18.3158 11.7158 18.3704 11.7488C18.3704 10.4951 18.3704 9.24147 18.3704 7.98783C18.3704 7.888 18.3705 7.78827 18.3706 7.68862C18.3709 7.38995 18.3712 7.09196 18.3688 6.79396C18.3672 6.46461 18.258 6.17802 17.9776 5.99435C17.8677 5.92324 17.7431 5.87559 17.6133 5.82595C17.5524 5.80265 17.4903 5.77891 17.4281 5.75209ZM15.2853 3.91379H15.5292V5.78851C15.5098 5.79022 15.4911 5.79254 15.4727 5.79482C15.44 5.79887 15.4086 5.80276 15.3772 5.80276L15.3756 5.80276C12.2958 5.80434 9.21759 5.80593 6.13779 5.80276C5.46155 5.80118 5.00069 5.18841 5.20974 4.56931C5.3301 4.21146 5.58508 3.99454 5.96042 3.93279C6.05386 3.91695 6.15046 3.91379 6.24549 3.91379H15.2853Z" fill="#0F50A4"/>
</svg>
