<svg width="24" height="24" viewBox="0 0 24 24" fill="none" xmlns="http://www.w3.org/2000/svg">
<path fill-rule="evenodd" clip-rule="evenodd" d="M7.27606 4.02731C7.22083 3.77026 7.23788 3.25011 7.7409 3.17436H9.0092C9.10676 2.91175 9.43359 2.32922 9.96042 2.10003C10.619 1.81354 11.3507 2.19552 11.619 2.57751C11.8336 2.8831 11.9035 3.10274 11.9116 3.17436H13.0824C13.305 3.17436 13.6008 3.24012 13.6728 3.69902C13.7287 3.95516 13.7132 4.47851 13.2085 4.55451H11.9402H9.03773H7.86699C7.64395 4.55451 7.34735 4.48851 7.27606 4.02731Z" fill="#0F50A4"/>
<path fill-rule="evenodd" clip-rule="evenodd" d="M15.5597 22.0068C18.1806 22.0068 20.3053 19.8822 20.3053 17.2612C20.3053 14.6403 18.1806 12.5156 15.5597 12.5156C12.9388 12.5156 10.8141 14.6403 10.8141 17.2612C10.8141 19.8822 12.9388 22.0068 15.5597 22.0068ZM15.8836 16.8774C15.5365 17.2229 15.1844 17.5733 14.8225 17.9319C14.6757 17.7717 14.5489 17.6315 14.4221 17.4847C14.3219 17.3744 14.2141 17.268 14.1073 17.1624C14.0719 17.1274 14.0365 17.0925 14.0016 17.0575C13.6412 16.7171 13.2407 16.6904 12.9337 16.9841C12.62 17.2845 12.64 17.7116 12.9938 18.072C13.2654 18.3482 13.5401 18.6213 13.8137 18.8935C13.9502 19.0292 14.0864 19.1647 14.2218 19.3001C14.6757 19.754 15.0361 19.754 15.4833 19.3068C16.0081 18.7864 16.53 18.2631 17.0529 17.7388C17.3146 17.4762 17.5766 17.2135 17.8394 16.9507C17.8728 16.9174 17.9066 16.8844 17.9404 16.8514C18.0417 16.7526 18.1431 16.6537 18.2332 16.5436C18.4801 16.2499 18.4601 15.8361 18.1998 15.5758C17.9328 15.3088 17.539 15.2888 17.232 15.5424C17.1568 15.6076 17.0854 15.6803 17.0149 15.7521C16.9915 15.7758 16.9683 15.7995 16.945 15.8227C16.593 16.1714 16.2409 16.5218 15.8836 16.8774Z" fill="#0685CF"/>
<path fill-rule="evenodd" clip-rule="evenodd" d="M5.1947 3.86719H6.23785C6.2326 4.03587 6.24996 4.18854 6.27402 4.30903C6.34467 4.72907 6.54535 5.09966 6.90089 5.33694C7.22929 5.55611 7.57207 5.57969 7.7577 5.57969H13.3878L13.4532 5.56984C14.0873 5.47435 14.4631 5.0531 14.6167 4.61065C14.7083 4.34656 14.7222 4.08303 14.7046 3.86719H15.7536C16.582 3.86719 17.2536 4.53876 17.2536 5.36719V11.2302C16.6933 11.0641 16.0999 10.9749 15.4857 10.9749C15.2989 10.9749 15.114 10.9832 14.9314 10.9993C14.796 10.7871 14.5584 10.6463 14.288 10.6463H7.00007C6.57885 10.6463 6.23738 10.9878 6.23738 11.409C6.23738 11.8302 6.57885 12.1717 7.00007 12.1717H11.8206C11.1931 12.6314 10.6551 13.2061 10.2377 13.8648H7.00007C6.57885 13.8648 6.23738 14.2063 6.23738 14.6275C6.23738 15.0487 6.57885 15.3902 7.00007 15.3902H9.54017C9.36919 15.9579 9.27729 16.5599 9.27729 17.1833C9.27729 18.4656 9.66601 19.657 10.332 20.6463H5.1947C4.36628 20.6463 3.6947 19.9747 3.6947 19.1463V5.36719C3.6947 4.53876 4.36628 3.86719 5.1947 3.86719ZM6.23738 8.18624C6.23738 7.76502 6.57885 7.42355 7.00007 7.42355H10.3898C10.811 7.42355 11.1525 7.76502 11.1525 8.18624C11.1525 8.60746 10.811 8.94892 10.3898 8.94892H7.00007C6.57885 8.94892 6.23738 8.60746 6.23738 8.18624Z" fill="#0F50A4"/>
</svg>
