<svg width="22" height="22" viewBox="0 0 22 22" fill="none" xmlns="http://www.w3.org/2000/svg">
<g clip-path="url(#clip0_38243_21062)">
<path d="M21.6298 12.3108H10.5986C10.0075 12.2653 9.42223 12.4543 8.96949 12.8371C8.51675 13.2198 8.23294 13.7655 8.17951 14.3559L8.17859 14.3642C8.2328 14.9624 8.5223 15.5146 8.98348 15.8994C9.44465 16.2843 10.0398 16.4703 10.638 16.4166L10.6298 16.4175H21.6298C21.699 16.4239 21.7688 16.4164 21.8351 16.3955C21.9014 16.3745 21.9629 16.3406 22.0159 16.2956C22.0689 16.2506 22.1124 16.1955 22.1439 16.1335C22.1753 16.0714 22.1941 16.0038 22.199 15.9344V12.7957C22.181 12.6616 22.115 12.5385 22.0132 12.4494C21.9114 12.3602 21.7807 12.311 21.6453 12.3108H21.6298ZM10.5986 15.6457C10.3393 15.6457 10.0859 15.5688 9.87033 15.4247C9.65477 15.2807 9.48675 15.076 9.38754 14.8365C9.28833 14.5969 9.26237 14.3334 9.31295 14.0791C9.36352 13.8248 9.48837 13.5913 9.67169 13.4079C9.85502 13.2246 10.0886 13.0998 10.3429 13.0492C10.5971 12.9986 10.8607 13.0246 11.1002 13.1238C11.3397 13.223 11.5445 13.391 11.6885 13.6066C11.8325 13.8221 11.9094 14.0756 11.9094 14.3348V14.3385C11.9094 15.0608 11.3237 15.6457 10.6023 15.6457H10.5986ZM3.02051 0V5.87033H4.27451V3.36233C4.40101 3.3935 4.54767 3.41367 4.69801 3.41917H4.70167C5.1548 3.41796 5.58903 3.23748 5.90952 2.91716C6.23002 2.59684 6.41072 2.1627 6.41217 1.70958C6.40914 1.56077 6.38884 1.4128 6.35167 1.26867L6.35442 1.28242H13.2221C13.189 1.42132 13.17 1.5632 13.1653 1.70592V1.70958C13.1665 2.16271 13.3469 2.59694 13.6673 2.91743C13.9876 3.23792 14.4217 3.41863 14.8748 3.42008C15.0288 3.41458 15.1764 3.39442 15.3176 3.35958L15.3029 3.36233V5.87033H16.5872V0H3.02051ZM17.1271 5.15717H18.723C18.6035 4.80987 18.3939 4.50048 18.1158 4.26054C17.8377 4.0206 17.501 3.8587 17.1399 3.79133L17.1271 3.7895V5.15717Z" fill="#0685CF"/>
<path d="M10.5151 11.627H21.4583V8.29311C21.4114 7.79855 21.1721 7.3422 20.792 7.02241C20.4118 6.70262 19.9213 6.545 19.426 6.58352H19.4324H2.05242C2.03762 6.56737 2.01738 6.55726 1.99558 6.55511C1.87508 6.49849 1.77192 6.41066 1.69681 6.30073C1.6217 6.1908 1.57737 6.06278 1.56842 5.92994V5.92811C1.58301 5.76323 1.64763 5.60675 1.75363 5.47962C1.85963 5.35249 2.00194 5.26078 2.1615 5.21677L2.167 5.21586V3.76294C0.968917 3.81977 0 5.52936 0 7.66702V20.2914C0.0472919 20.7853 0.286469 21.241 0.666133 21.5605C1.0458 21.88 1.53565 22.0378 2.03042 22H2.024H19.404C19.8967 22.0364 20.384 21.8787 20.762 21.5606C21.14 21.2426 21.3787 20.7894 21.4271 20.2978L21.428 20.2904V16.9565H10.5453C8.77892 16.9565 7.3535 15.7594 7.3535 14.3064C7.3535 12.8251 8.778 11.6279 10.516 11.6279L10.5151 11.627Z" fill="#0F50A4"/>
</g>
<defs>
<clipPath id="clip0_38243_21062">
<rect width="22" height="22" fill="white"/>
</clipPath>
</defs>
</svg>
