<svg width="27" height="28" viewBox="0 0 27 28" fill="none" xmlns="http://www.w3.org/2000/svg">
<mask id="mask0_38243_1995" style="mask-type:alpha" maskUnits="userSpaceOnUse" x="0" y="0" width="27" height="28">
<rect width="27" height="27.3103" fill="#C4C4C4"/>
</mask>
<g mask="url(#mask0_38243_1995)">
<path d="M6.52588 26.4287H2.08306C1.41848 26.4287 0.880371 25.8906 0.880371 25.226V18.5457C0.880371 17.8811 1.41848 17.343 2.08306 17.343H6.52358C7.18816 17.343 7.72626 17.8811 7.72626 18.5457V25.226C7.72626 25.8906 7.18816 26.4287 6.52588 26.4287Z" fill="#0F50A4"/>
<path d="M15.2829 26.4262H10.8423C10.1778 26.4262 9.63965 25.8881 9.63965 25.2235V13.8589C9.63965 13.1944 10.1778 12.6563 10.8423 12.6563H15.2829C15.9474 12.6563 16.4855 13.1944 16.4855 13.8589V25.2235C16.4855 25.8881 15.9474 26.4262 15.2829 26.4262ZM24.042 26.4262H19.6015C18.9369 26.4262 18.3988 25.8881 18.3988 25.2235V7.24761C18.3988 6.58303 18.9369 6.04492 19.6015 6.04492H24.042C24.7066 6.04492 25.2447 6.58303 25.2447 7.24761V25.2235C25.2447 25.8881 24.7066 26.4262 24.042 26.4262Z" fill="#0F50A4"/>
<path d="M8.67374 0.879639H16.1819C16.3728 0.879639 16.5292 1.03601 16.5292 1.22688V8.99951C16.5292 9.31225 16.1497 9.46403 15.9336 9.24096L13.9122 7.14833C13.857 7.09055 13.7834 7.05387 13.704 7.04463C13.6247 7.03539 13.5446 7.05418 13.4776 7.09774L3.04434 13.7413C2.7201 13.9482 2.34986 13.5504 2.57982 13.2423L9.97302 3.30571C10.0788 3.16314 10.0604 2.96307 9.92932 2.84349L8.43919 1.48443C8.20693 1.27057 8.3564 0.879639 8.67374 0.879639Z" fill="#0685CF"/>
<path d="M15.2829 12.6563H10.8423C10.1778 12.6563 9.63965 13.1944 9.63965 13.8589V25.2235C9.63965 25.8881 10.1778 26.4262 10.8423 26.4262H12.4635C13.8719 25.9635 15.2217 25.3384 16.4855 24.5636V13.8589C16.4855 13.1944 15.9474 12.6563 15.2829 12.6563ZM25.2447 11.9641V7.24761C25.2447 6.58303 24.7066 6.04492 24.042 6.04492H19.6015C18.9369 6.04492 18.3988 6.58303 18.3988 7.24761V23.2137C21.8712 20.4427 24.357 16.492 25.2447 11.9641Z" fill="#0F50A4"/>
<path d="M19.8221 6.04492H19.5991C18.9345 6.04492 18.3964 6.58303 18.3964 7.24761V9.94733C19.014 8.70307 19.4922 7.39431 19.8221 6.04492ZM16.3152 13.2496C16.106 12.8954 15.7243 12.6563 15.2827 12.6563H10.8422C10.1776 12.6563 9.63953 13.1944 9.63953 13.8589V18.6628C12.2565 17.3842 14.5354 15.5216 16.3152 13.2496ZM6.52588 17.3405H2.08306C1.41848 17.3405 0.880371 17.8786 0.880371 18.5432V20.5853C1.00685 20.5876 1.13333 20.5945 1.2598 20.5945C3.5295 20.5945 5.70722 20.1966 7.72626 19.47V18.5432C7.72626 17.8786 7.18816 17.3405 6.52588 17.3405Z" fill="#0F50A4"/>
<path d="M2.99512 12.6812C8.41296 10.7081 12.681 6.35037 14.546 0.879639H8.67282C8.35547 0.879639 8.206 1.26827 8.43826 1.48213L9.92839 2.84119C10.0595 2.96077 10.0802 3.16084 9.97209 3.30341L2.99512 12.6812Z" fill="#0685CF"/>
</g>
</svg>
