<svg width="26" height="26" viewBox="0 0 26 26" fill="none" xmlns="http://www.w3.org/2000/svg">
<path fill-rule="evenodd" clip-rule="evenodd" d="M23.8332 13C23.8332 18.983 18.9829 23.8333 12.9998 23.8333C7.01675 23.8333 2.1665 18.983 2.1665 13C2.1665 7.01688 7.01675 2.16663 12.9998 2.16663C18.9829 2.16663 23.8332 7.01688 23.8332 13ZM18.1469 13.476C17.696 13.7715 17.0966 13.4464 17.0966 12.9077C17.0966 12.7919 17.1238 12.6777 17.1751 12.5766C17.2265 12.4755 17.3027 12.3876 17.3998 12.3231C17.7745 12.0759 18.0224 11.6508 18.0224 11.1679C18.0224 10.4046 17.4028 9.78498 16.6395 9.78498C16.6217 9.78498 16.6045 9.78498 16.5867 9.78568L16.6737 9.63091L16.7141 9.55938C16.7685 9.45291 16.798 9.33237 16.798 9.2048C16.798 8.84341 16.5562 8.53784 16.2251 8.44216C16.3417 8.42434 16.4606 8.41426 16.5811 8.41191C18.0674 8.38166 19.3291 9.56008 19.3936 11.045C19.4379 12.0619 18.9314 12.9629 18.1469 13.476ZM9.05329 12.5841L7.67882 10.2029V16.3903C7.67882 16.58 7.75598 16.7519 7.88027 16.8762C8.00456 17.0007 8.17575 17.0776 8.36618 17.0776C8.74538 17.0776 9.05329 16.7699 9.05329 16.3905V12.5841ZM16.6862 16.3903V10.2116L15.3117 12.5928V16.3905C15.3117 16.7697 15.6194 17.0776 15.9988 17.0776C16.1885 17.0776 16.3604 17.0005 16.4847 16.8762C16.6092 16.7516 16.6862 16.58 16.6862 16.3903ZM8.96184 8.85678C8.83919 8.64408 8.61242 8.51322 8.36688 8.51322C7.83806 8.51322 7.5074 9.0859 7.77193 9.5439L11.587 16.152C11.589 16.1554 11.5914 16.1587 11.5938 16.162C11.5968 16.1662 11.5998 16.1705 11.6024 16.1752C11.6135 16.1914 11.6242 16.2071 11.636 16.2226C11.6461 16.2357 11.6564 16.2481 11.6672 16.2606C11.6857 16.2817 11.7052 16.3026 11.727 16.322C11.7336 16.3282 11.7409 16.3342 11.7482 16.3402L11.7619 16.3516C11.7868 16.3701 11.8133 16.3872 11.8405 16.4036C11.8677 16.4191 11.8949 16.4322 11.9228 16.444C11.9507 16.4548 11.9795 16.4648 12.0074 16.4726C12.124 16.5038 12.2452 16.5028 12.358 16.4726C12.3859 16.4648 12.4141 16.4555 12.442 16.4447L12.4436 16.444C12.4701 16.4332 12.4966 16.4207 12.5222 16.406L12.5242 16.4056L12.5262 16.4036C12.5391 16.3964 12.5517 16.3883 12.564 16.3804L12.5665 16.3788C12.5923 16.361 12.6165 16.3422 12.6397 16.322C12.6598 16.3035 12.6793 16.2833 12.6971 16.2622C12.7112 16.2465 12.7236 16.231 12.7361 16.2139C12.7447 16.2022 12.7525 16.1914 12.7602 16.179C12.763 16.1744 12.7661 16.1704 12.7691 16.1663L12.773 16.1611L12.7773 16.1548L12.9771 15.8094L8.96184 8.85678ZM16.5938 9.54343C16.6552 9.43767 16.6855 9.31877 16.6855 9.19987C16.6855 9.08168 16.6552 8.96278 16.5938 8.85631C16.4221 8.55942 16.0839 8.45506 15.7955 8.543C15.7889 8.54535 15.7823 8.54746 15.7757 8.54957L15.7614 8.5542L15.7559 8.55614C15.6152 8.60914 15.4892 8.70927 15.4046 8.85631L12.4209 14.0245L13.2138 15.4004L16.5938 9.54343Z" fill="#0F50A4"/>
<rect x="0.541667" y="0.541667" width="24.9167" height="24.9167" rx="12.4583" stroke="#0F50A4" stroke-width="1.08333"/>
</svg>
