<svg width="27" height="23" viewBox="0 0 27 23" fill="none" xmlns="http://www.w3.org/2000/svg">
<g clip-path="url(#clip0_38243_1683)">
<path d="M22.5703 0.315795C22.9669 -0.105258 23.6081 -0.105258 23.9667 0.31575L26.6667 3.19035C26.8945 3.39249 27 3.66697 27 3.95267C27 4.23882 26.8945 4.51464 26.6667 4.67636L23.9667 7.55136C23.6081 8.00956 22.9669 8.00956 22.5703 7.55136C22.178 7.16953 22.178 6.48671 22.5703 6.06445L23.5448 4.99081H16.2C15.6389 4.99081 15.1875 4.54609 15.1875 3.95267C15.1875 3.35745 15.6389 2.87454 16.2 2.87454L23.5448 2.83456L22.5703 1.84044C22.178 1.41953 22.178 0.736713 22.5703 0.315795ZM4.39172 16.8951L3.45684 17.9687L10.762 17.9283C11.3611 17.9283 11.7745 18.4494 11.7745 19.0064C11.7745 19.6398 11.3611 20.0846 10.762 20.0846L3.45727 20.125L4.39172 21.1582C4.82203 21.5805 4.82203 22.2633 4.39172 22.6451C4.03312 23.1033 3.39187 23.1033 2.99658 22.6451L0.296536 19.7701C0.10665 19.6084 -4.2175e-05 19.3344 1.25064e-08 19.0064C1.25064e-08 18.7594 0.106692 18.4853 0.296578 18.2832L2.99658 15.4082C3.39187 14.9904 4.03312 14.9904 4.39172 15.4082C4.82203 15.8305 4.82203 16.5133 4.39172 16.8951ZM4.01203 2.87499H14.2552C14.0948 3.19753 14.0062 3.5641 14.0062 3.91269C14.0062 5.24238 14.9892 6.24863 16.2 6.24863H20.2964C20.4356 7.07519 20.8786 7.74902 21.4903 8.17128C21.562 8.27909 21.6464 8.38242 21.735 8.48124C22.5914 9.39316 23.9836 9.39316 24.84 8.48124L25.65 7.61425V17.25C25.65 18.8357 24.4392 20.125 22.95 20.125H12.7448C12.9052 19.8016 12.9558 19.4377 12.9558 19.0064C12.9558 17.7576 12.0108 16.6705 10.762 16.6705L6.70359 16.7109C6.56016 15.9248 6.12141 15.251 5.50969 14.8287C5.43797 14.7209 5.35359 14.6176 5.265 14.5187C4.40859 13.6068 3.01809 13.6068 2.16127 14.5187L1.31203 15.3857V5.74999C1.31203 4.16201 2.55867 2.87499 4.01203 2.87499ZM4.01203 8.62499C5.53922 8.62499 6.71203 7.33574 6.71203 5.74999H4.01203V8.62499ZM22.95 17.25V14.375C21.4608 14.375 20.25 15.6643 20.25 17.25H22.95ZM13.462 15.8125C15.7359 15.8125 17.55 13.8809 17.55 11.5C17.55 9.0787 15.7359 7.18749 13.462 7.18749C11.2261 7.18749 9.41203 9.0787 9.41203 11.5C9.41203 13.8809 11.2261 15.8125 13.462 15.8125Z" fill="#0F50A4"/>
<path fill-rule="evenodd" clip-rule="evenodd" d="M23.9667 0.31575C23.6081 -0.105258 22.9669 -0.105258 22.5703 0.315795C22.178 0.736713 22.178 1.41953 22.5703 1.84044L23.5448 2.83456L16.2 2.87455C15.6389 2.87455 15.1875 3.35745 15.1875 3.95267C15.1875 4.54609 15.6389 4.99081 16.2 4.99081H23.5448L22.5703 6.06445C22.178 6.48671 22.178 7.16953 22.5703 7.55136C22.9669 8.00956 23.6081 8.00956 23.9667 7.55136L26.6667 4.67636C26.8945 4.51464 27 4.23882 27 3.95267C27 3.66697 26.8945 3.39249 26.6667 3.19035L23.9667 0.31575ZM3.45684 17.9687L4.39172 16.8951C4.82203 16.5133 4.82203 15.8305 4.39172 15.4082C4.03312 14.9904 3.39187 14.9904 2.99658 15.4082L0.296578 18.2832C0.106692 18.4853 1.25064e-08 18.7594 1.25064e-08 19.0064C-4.2175e-05 19.3344 0.10665 19.6084 0.296536 19.7701L2.99658 22.6451C3.39187 23.1033 4.03312 23.1033 4.39172 22.6451C4.82203 22.2633 4.82203 21.5805 4.39172 21.1582L3.45727 20.125L10.762 20.0846C11.3611 20.0846 11.7745 19.6398 11.7745 19.0064C11.7745 18.4494 11.3611 17.9283 10.762 17.9283L3.45684 17.9687Z" fill="#0685CF"/>
</g>
<defs>
<clipPath id="clip0_38243_1683">
<rect width="27" height="23" fill="white"/>
</clipPath>
</defs>
</svg>
