<svg width="17" height="16" viewBox="0 0 17 16" fill="none" xmlns="http://www.w3.org/2000/svg">
<path fill-rule="evenodd" clip-rule="evenodd" d="M8.83286 9.10106C8.33111 9.10106 7.83086 8.93531 7.41236 8.60381L4.04861 5.89181C3.80636 5.69681 3.76886 5.34206 3.96311 5.10056C4.15886 4.85981 4.51286 4.82156 4.75436 5.01581L8.11511 7.72481C8.53736 8.05931 9.13211 8.05931 9.55736 7.72181L12.8844 5.01731C13.1259 4.82006 13.4799 4.85756 13.6764 5.09906C13.8721 5.33981 13.8354 5.69381 13.5946 5.89031L10.2616 8.59931C9.84011 8.93381 9.33611 9.10106 8.83286 9.10106Z" fill="black"/>
<mask id="mask0_22730_75271" style="mask-type:luminance" maskUnits="userSpaceOnUse" x="0" y="0" width="17" height="16">
<path fill-rule="evenodd" clip-rule="evenodd" d="M0.75061 0.503906H16.8755V15.1289H0.75061V0.503906Z" fill="white"/>
</mask>
<g mask="url(#mask0_22730_75271)">
<path fill-rule="evenodd" clip-rule="evenodd" d="M5.13017 14.0059H12.4952C12.4967 14.0044 12.5027 14.0059 12.5072 14.0059C13.3629 14.0059 14.1219 13.6999 14.7039 13.1186C15.3797 12.4459 15.7509 11.4791 15.7509 10.3969V5.24586C15.7509 3.15111 14.3814 1.63086 12.4952 1.63086H5.13167C3.24542 1.63086 1.87592 3.15111 1.87592 5.24586V10.3969C1.87592 11.4791 2.24792 12.4459 2.92292 13.1186C3.50492 13.6999 4.26467 14.0059 5.11967 14.0059H5.13017ZM5.11742 15.1309C3.96017 15.1309 2.92667 14.7109 2.12867 13.9159C1.23992 13.0294 0.750916 11.7799 0.750916 10.3969V5.24586C0.750916 2.54361 2.63417 0.505859 5.13167 0.505859H12.4952C14.9927 0.505859 16.8759 2.54361 16.8759 5.24586V10.3969C16.8759 11.7799 16.3869 13.0294 15.4982 13.9159C14.7009 14.7101 13.6667 15.1309 12.5072 15.1309H12.4952H5.13167H5.11742Z" fill="black"/>
</g>
</svg>
