<svg width="16" height="16" viewBox="0 0 16 16" fill="none" xmlns="http://www.w3.org/2000/svg">
<path fill-rule="evenodd" clip-rule="evenodd" d="M0.966539 1.56589L1.02095 1.50903C2.46652 0.0633298 3.40788 -0.319866 4.4123 0.257717C4.70122 0.423861 4.97209 0.656424 5.34041 1.03051L6.47018 2.20203C7.0942 2.88295 7.23606 3.53609 7.03287 4.30099L7.00488 4.40225L6.97381 4.50294L6.82278 4.94606C6.49952 5.93979 6.63448 6.50046 7.7846 7.65029C8.98062 8.84601 9.53892 8.94383 10.6093 8.56979L10.8001 8.50348L11.0308 8.42856L11.1317 8.40054C11.9447 8.18363 12.6315 8.35673 13.3599 9.0846L14.2702 9.96389L14.5382 10.2274C14.8352 10.5304 15.0316 10.7704 15.1766 11.0242C15.7506 12.0283 15.367 12.9691 13.8797 14.4508L13.7383 14.5942C13.5162 14.8082 13.3087 14.9615 13.004 15.1062C12.4924 15.3491 11.888 15.4407 11.1856 15.343C9.45505 15.1023 7.26012 13.7368 4.47891 10.9563C4.25251 10.73 4.03568 10.508 3.82819 10.2904L3.42561 9.86071C-0.346782 5.76213 -0.679584 3.24441 0.866381 1.66538L0.966539 1.56589ZM4.42981 1.71069C4.18546 1.4698 4.00797 1.32295 3.85149 1.23297C3.50534 1.03392 3.13162 1.11806 2.43997 1.71336L2.22265 1.90751C2.18474 1.9425 2.14596 1.97882 2.10629 2.01651L1.85708 2.25923L1.83463 2.28729L1.66568 2.45702C1.25742 2.87403 1.06403 3.38298 1.23068 4.25825C1.50413 5.69452 2.75581 7.6429 5.2743 10.1607C7.89846 12.7842 9.89787 14.0281 11.3406 14.2287C12.1817 14.3457 12.6107 14.142 13.0482 13.6938L13.3818 13.3571C13.5382 13.1934 13.6719 13.045 13.7848 12.9094L13.9388 12.7154C14.3323 12.1913 14.3682 11.8769 14.1999 11.5825C14.1359 11.4704 14.0428 11.3476 13.9072 11.1975L13.7232 11.0033L13.6144 10.8943L12.466 9.7854C12.0822 9.43149 11.8199 9.38128 11.4217 9.48752L11.3068 9.52058L10.8311 9.68207C9.45097 10.1278 8.45535 9.91166 6.9892 8.44588C5.47072 6.92779 5.29263 5.91403 5.80142 4.45438L5.83405 4.36058L5.92431 4.08865L5.96867 3.91532C6.04735 3.5381 5.95753 3.27508 5.55202 2.8695L5.49636 2.8134L4.42981 1.71069Z" fill="black"/>
</svg>
