<svg width="18" height="18" viewBox="0 0 18 18" fill="none" xmlns="http://www.w3.org/2000/svg">
<g id="Iconly/Light-Outline/Message">
<path id="Vector" d="M16.9987 9.17657C16.897 13.5702 13.3057 17.095 8.84786 17.021C6.72357 16.9776 4.7035 16.0922 3.23206 14.5594C1.76061 13.0267 0.958317 10.9722 1.00167 8.84786C1.04502 6.72357 1.93047 4.70351 3.46323 3.23206C4.99599 1.76061 7.0505 0.958317 9.17479 1.00167C13.56 1.10202 17.0781 4.73165 16.9987 9.17657ZM12.0324 11.1417C12.2453 9.72853 12.2453 8.29144 12.0324 6.87829H5.93542C5.72312 8.29149 5.72312 9.72848 5.93542 11.1417H12.0324ZM11.8147 5.79939C11.5355 4.73789 11.1716 3.73883 10.4611 2.90747C10.265 2.68036 10.0382 2.48175 9.78716 2.3174C9.27782 1.98155 8.73725 1.9704 8.21498 2.29554C8.00318 2.42738 7.80844 2.58481 7.63517 2.7643C7.01744 3.40923 6.6584 4.20268 6.37742 5.03582C6.29401 5.2838 6.22756 5.53758 6.1504 5.79939H11.8147ZM6.16378 12.2219C6.1665 12.2519 6.17096 12.2817 6.17716 12.3111C6.37831 13.0957 6.65707 13.8494 7.0839 14.5412C7.38228 15.0242 7.73641 15.4582 8.23906 15.7454C8.71584 16.017 9.19977 16.0273 9.68681 15.7677C10.0119 15.5946 10.2751 15.3484 10.507 15.0679C10.9294 14.5559 11.2287 13.9734 11.4566 13.3548C11.5904 12.9873 11.7032 12.6108 11.8299 12.2228L6.16378 12.2219ZM4.86054 11.1417C4.65895 9.72965 4.65895 8.29613 4.86054 6.88409C4.81995 6.87963 4.79855 6.87516 4.77758 6.87516C4.01535 6.87516 3.25357 6.87517 2.49179 6.8716C2.38831 6.8716 2.362 6.9162 2.33747 6.99916C2.06228 7.91035 1.9646 8.84028 2.08413 9.78404C2.14212 10.243 2.25629 10.6943 2.34371 11.1417H4.86054ZM15.5938 6.88676H13.1064C13.3071 8.29483 13.3071 9.72425 13.1064 11.1323C13.1274 11.1393 13.1491 11.1444 13.171 11.1475C13.9444 11.1475 14.7173 11.1475 15.4903 11.1511C15.592 11.1511 15.6138 11.0966 15.6268 11.0239C15.7244 10.4954 15.856 9.97002 15.9077 9.43704C15.9938 8.57089 15.8618 7.72035 15.5938 6.88676ZM11.573 2.57118C11.5837 2.60155 11.5961 2.63133 11.61 2.66038C12.2221 3.58499 12.6555 4.61612 12.8878 5.70038C12.9119 5.81233 12.9743 5.80742 13.0546 5.80742C13.6053 5.80742 14.1561 5.80742 14.7071 5.80742H15.1428C14.3257 4.30571 13.1581 3.24331 11.573 2.57118ZM15.1411 12.217C14.4074 12.217 13.7076 12.217 13.0078 12.2148C12.9012 12.2148 12.8994 12.279 12.8834 12.3517C12.6503 13.4005 12.2319 14.3993 11.6479 15.3012C11.6256 15.336 11.6078 15.373 11.5877 15.4091C13.1554 14.7816 14.3231 13.7192 15.1428 12.217H15.1411ZM2.82183 12.217C3.64115 13.7192 4.80925 14.782 6.37786 15.4434C6.37658 15.4254 6.37359 15.4074 6.36894 15.3899C5.75004 14.4507 5.30863 13.406 5.0666 12.3076C5.05462 12.284 5.03705 12.2638 5.01543 12.2486C4.99382 12.2335 4.96881 12.2238 4.94261 12.2206C4.24906 12.2152 3.55507 12.217 2.82362 12.217H2.82183ZM2.82183 5.80563C3.55507 5.80563 4.25531 5.80563 4.95599 5.80787C5.06303 5.80787 5.06303 5.7423 5.07953 5.67005C5.31218 4.62102 5.73074 3.62211 6.31542 2.72059C6.33728 2.68669 6.35512 2.64967 6.37474 2.61399C4.81014 3.24153 3.64427 4.30348 2.82362 5.80563H2.82183Z" fill="black"/>
</g>
</svg>
