<svg width="24" height="25" viewBox="0 0 24 25" fill="none" xmlns="http://www.w3.org/2000/svg">
<path d="M12 12.6701C14.7189 12.6701 16.9231 10.4914 16.9231 7.80379C16.9231 5.11621 14.7189 2.9375 12 2.9375C9.28106 2.9375 7.07692 5.11621 7.07692 7.80379C7.07692 10.4914 9.28106 12.6701 12 12.6701Z" fill="#0F50A4"/>
<path d="M14.5641 14.6978H9.4359C6.46154 14.6978 4 17.1309 4 20.071C4 20.7807 4.30769 21.389 4.92308 21.6931C5.84615 22.2 7.89744 22.8083 12 22.8083C16.1026 22.8083 18.1538 22.2 19.0769 21.6931C19.5897 21.389 20 20.7807 20 20.071C20 17.0296 17.5385 14.6978 14.5641 14.6978Z" fill="#0F50A4"/>
</svg>
