<svg width="24" height="25" viewBox="0 0 24 25" fill="none" xmlns="http://www.w3.org/2000/svg">
<path d="M12 12.6623C14.719 12.6623 16.9231 10.4836 16.9231 7.79598C16.9231 5.1084 14.719 2.92969 12 2.92969C9.28111 2.92969 7.07697 5.1084 7.07697 7.79598C7.07697 10.4836 9.28111 12.6623 12 12.6623Z" fill="#848F92"/>
<path d="M14.5641 14.69H9.43594C6.46158 14.69 4.00005 17.1231 4.00005 20.0632C4.00005 20.7729 4.30774 21.3811 4.92312 21.6853C5.8462 22.1922 7.89748 22.8005 12 22.8005C16.1026 22.8005 18.1539 22.1922 19.077 21.6853C19.5898 21.3811 20 20.7729 20 20.0632C20 17.0218 17.5385 14.69 14.5641 14.69Z" fill="#848F92"/>
</svg>
