<svg width="24" height="24" viewBox="0 0 24 24" fill="none" xmlns="http://www.w3.org/2000/svg">
<path fill-rule="evenodd" clip-rule="evenodd" d="M20.2938 3.02279H20.3267C21.2688 3.14241 21.9934 3.84878 22 4.69755V6.75C22 7.09518 21.7202 7.375 21.375 7.375H2.625C2.27982 7.375 2 7.09518 2 6.75V4.69755C2.00659 3.76333 2.88274 3 3.96311 3H4.64163L20.2938 3.02279ZM6.96194 5.38673C6.96194 5.0847 7.20678 4.83529 7.50881 4.83529H16.6561C16.9581 4.83529 17.203 5.0847 17.203 5.38673C17.203 5.68876 16.9581 5.93817 16.6561 5.93817H7.50881C7.20678 5.93817 6.96194 5.68876 6.96194 5.38673ZM3.96311 21.125H20.05C21.1238 21.125 22.0066 20.2896 22 19.2734V9.21875C22 8.89083 21.7341 8.625 21.4062 8.625H2.59375C2.26583 8.625 2 8.89083 2 9.21875V19.2734C2.00659 20.2896 2.88274 21.125 3.96311 21.125ZM9.97492 15.6814L9.70723 17.2137C9.66499 17.4555 9.91777 17.6412 10.1359 17.5286L11.5598 16.7933C11.7195 16.7103 11.9176 16.7103 12.0774 16.7933L13.5013 17.5286C13.7194 17.6412 13.9722 17.4555 13.9299 17.2137L13.6622 15.6814C13.6303 15.4961 13.6942 15.3044 13.8284 15.1766L14.9493 14.1106C15.1291 13.9395 15.0321 13.6363 14.7863 13.6015L13.2277 13.3808C13.0424 13.3553 12.8826 13.2402 12.8059 13.0741L12.0876 11.6516C11.9777 11.4338 11.6666 11.4342 11.5573 11.6522L10.844 13.0741C10.7609 13.2402 10.6012 13.3553 10.4159 13.3808L8.85567 13.6017C8.61015 13.6365 8.51293 13.9391 8.69227 14.1104L9.80876 15.1766C9.94296 15.3044 10.0069 15.4961 9.97492 15.6814Z" fill="#848F92"/>
</svg>
