<svg width="20" height="20" viewBox="0 0 20 20" fill="none" xmlns="http://www.w3.org/2000/svg">
<path d="M19.8844 13.2984C19.7278 15.0315 19.476 16.4398 19.1697 17.6963C18.9655 18.9529 17.7403 20 16.4131 20H14.7795C13.8606 20 13.1459 19.267 13.1459 18.3246V14.0314C13.1459 12.9843 12.3291 12.1466 11.3081 12.1466H8.95983C7.93884 12.1466 7.12205 12.9843 7.12205 14.0314V18.3246C7.12205 19.267 6.40736 20 5.48847 20H3.54859C2.2213 20 1.09821 19.0576 0.791915 17.6963C0.485618 16.3351 0.22005 15.0327 0.0772221 13.2984C-0.104045 11.0974 0.0772221 9.00524 0.179321 7.64398C0.179321 6.80628 0.689816 5.96859 1.40451 5.44503L8.55144 0.52356C8.95983 0.209424 9.47033 0 9.98082 0C10.4913 0 11.1039 0.209424 11.5123 0.52356L18.6592 5.44503C19.3739 5.96859 19.8844 6.80628 19.8844 7.64398C19.9865 9.00524 20.0831 11.0993 19.8844 13.2984Z" fill="#848F92"/>
</svg>
