<svg width="20" height="21" viewBox="0 0 20 21" fill="none" xmlns="http://www.w3.org/2000/svg">
<path d="M19.8844 14.2926C19.7278 16.0257 19.476 17.4339 19.1697 18.6905C18.9655 19.947 17.7403 20.9941 16.413 20.9941H14.7794C13.8605 20.9941 13.1458 20.2612 13.1458 19.3187V15.0256C13.1458 13.9784 12.329 13.1407 11.308 13.1407H8.95977C7.93878 13.1407 7.12199 13.9784 7.12199 15.0256V19.3187C7.12199 20.2612 6.4073 20.9941 5.48841 20.9941H3.54853C2.22124 20.9941 1.09815 20.0517 0.791854 18.6905C0.485557 17.3292 0.219989 16.0269 0.0771611 14.2926C-0.104106 12.0915 0.0771611 9.99938 0.17926 8.63812C0.17926 7.80042 0.689755 6.96273 1.40445 6.43917L8.55138 1.5177C8.95977 1.20356 9.47027 0.994141 9.98076 0.994141C10.4913 0.994141 11.1039 1.20356 11.5122 1.5177L18.6592 6.43917C19.3739 6.96273 19.8844 7.80042 19.8844 8.63812C19.9865 9.99938 20.0831 12.0934 19.8844 14.2926Z" fill="#0F50A4"/>
</svg>
