<svg width="24" height="24" viewBox="0 0 24 24" fill="none" xmlns="http://www.w3.org/2000/svg">
<path d="M8.62397 3H5.41299C4.08299 3 3 4.09249 3 5.43294V8.67147C3 10.0205 4.08299 11.1035 5.41299 11.1035H8.62397C9.96347 11.1035 11.037 10.0205 11.037 8.67147V5.43294C11.037 4.09249 9.96347 3 8.62397 3" fill="#848F92"/>
<path d="M8.62397 13.8984H5.41299C4.08299 13.8984 3 14.9824 3 16.3314V19.5699C3 20.9094 4.08299 22.0019 5.41299 22.0019H8.62397C9.96347 22.0019 11.037 20.9094 11.037 19.5699V16.3314C11.037 14.9824 9.96347 13.8984 8.62397 13.8984" fill="#848F92"/>
<path d="M19.587 3H16.376C15.0365 3 13.963 4.09249 13.963 5.43294V8.67147C13.963 10.0205 15.0365 11.1035 16.376 11.1035H19.587C20.9169 11.1035 21.9999 10.0205 21.9999 8.67147V5.43294C21.9999 4.09249 20.9169 3 19.587 3" fill="#848F92"/>
<path d="M19.587 13.8984H16.376C15.0365 13.8984 13.963 14.9824 13.963 16.3314V19.5699C13.963 20.9094 15.0365 22.0019 16.376 22.0019H19.587C20.9169 22.0019 21.9999 20.9094 21.9999 19.5699V16.3314C21.9999 14.9824 20.9169 13.8984 19.587 13.8984" fill="#848F92"/>
</svg>