<svg width="50" height="50" viewBox="0 0 50 50" fill="none" xmlns="http://www.w3.org/2000/svg">
<path d="M11.3539 13.9316C11.5139 13.7563 11.7325 13.613 11.9885 13.4749C12.5058 13.1882 13.0231 12.9015 13.5564 12.6413C15.007 11.9298 16.1643 11.3245 17.0656 9.92803C17.6149 9.07848 18.0255 8.14396 18.5215 7.26255C18.6975 6.94928 18.8894 6.636 19.1828 6.42362C19.7641 6.00946 20.452 6.38114 21.0547 6.56167C21.8119 6.78999 22.5532 7.08733 23.3105 7.32096C23.6732 7.43246 24.0145 7.65547 24.3825 7.73512C24.8464 7.836 25.2837 7.65016 25.7104 7.46963C26.5157 7.1245 27.3476 6.82184 28.1902 6.57229C28.8729 6.37052 29.8168 5.96698 30.5261 6.24839C31.2354 6.52981 31.5554 7.38998 31.902 8.00591C32.446 8.97759 32.9046 9.98644 33.3793 10.9953C33.5339 11.3245 34.0352 11.4201 34.3445 11.5581C34.7712 11.7493 35.1925 11.951 35.6085 12.1581C36.2111 12.4501 36.8084 12.7581 37.3897 13.0926C37.8003 13.3316 38.7016 13.682 38.6803 14.2289C38.6643 14.6696 38.5736 15.0997 38.5096 15.5351C38.4083 16.1935 38.2483 16.8466 38.051 17.4785C37.8697 18.0519 37.5657 18.6254 37.4537 19.2094C37.2457 20.3138 37.8377 21.4395 38.083 22.4855C38.2483 23.213 38.4136 23.9404 38.5363 24.6731C38.6483 25.374 38.6536 25.9475 38.0083 26.3669C37.283 26.8342 36.4618 27.1687 35.6618 27.4979C35.2032 27.6837 33.9019 27.928 33.6992 28.3899C33.3099 29.2873 32.894 30.1687 32.4247 31.0289C31.9713 31.8678 31.454 33.243 30.4568 33.5616C29.6675 33.8165 28.8569 33.3014 28.1102 33.0996C27.2996 32.882 26.4943 32.6536 25.6944 32.4147C24.9318 32.1917 24.3825 32.1705 23.6518 32.4784C22.8305 32.8289 21.9773 33.1156 21.1186 33.3704C20.4894 33.5616 19.5134 34.0448 18.9054 33.5828C18.7615 33.4713 18.6708 33.3067 18.5801 33.1474C18.1215 32.3085 17.6575 31.4802 17.1989 30.6466C16.6016 29.5687 16.1056 28.3687 14.9377 27.7899C14.0364 27.3758 13.1298 26.9722 12.2125 26.5952C11.8445 26.4466 11.3752 26.2607 11.1886 25.8837C10.9806 25.4749 11.1352 24.9333 11.1886 24.5032C11.2739 23.8448 11.4232 23.1917 11.6312 22.5599C11.8605 21.8537 12.2925 21.1953 12.4578 20.4784C12.6391 19.6979 11.9992 18.7209 11.7699 17.9829C11.5299 17.2077 11.3272 16.4218 11.1779 15.6254C11.0552 15.0625 10.9166 14.4041 11.3539 13.9316Z" fill="#0F50A4"/>
<path d="M21.8164 21.4421L21.3967 23.8441C21.3256 24.2514 21.7513 24.5641 22.1187 24.3744L24.3521 23.2212C24.6077 23.0883 24.9247 23.0883 25.1803 23.2212L27.4137 24.3744C27.7811 24.5641 28.2068 24.2514 28.1357 23.8441L27.7161 21.4421C27.6649 21.1456 27.7672 20.8389 27.9819 20.6344L29.7378 18.9644C30.0408 18.6763 29.8773 18.1657 29.4634 18.1071L27.0208 17.7612C26.7242 17.7203 26.4686 17.5363 26.3459 17.2704L25.2191 15.0387C25.0339 14.672 24.5101 14.6727 24.3259 15.0399L23.2069 17.2704C23.074 17.5363 22.8184 17.7203 22.5219 17.7612L20.0766 18.1074C19.6631 18.166 19.4994 18.6757 19.8014 18.9641L21.5505 20.6344C21.7652 20.8389 21.8675 21.1456 21.8164 21.4421Z" fill="white"/>
<path fill-rule="evenodd" clip-rule="evenodd" d="M14.7325 31.1018C14.5148 31.4605 14.2167 31.8968 13.9199 32.3311C13.6322 32.7521 13.3458 33.1712 13.1353 33.5159L10.907 37.1666C10.8067 37.3292 10.7003 37.4888 10.5938 37.6486C10.3834 37.9641 10.1725 38.2805 10.007 38.6226C9.99462 38.648 9.98132 38.6749 9.96739 38.7031C9.79185 39.0581 9.51526 39.6175 9.74131 39.9671C9.84974 40.1371 10.0829 40.1956 10.2889 40.1903C10.6661 40.1776 11.0356 40.118 11.4054 40.0584C11.6576 40.0177 11.9098 39.977 12.1648 39.9511C12.2079 39.9467 12.3301 39.9304 12.4966 39.9081C13.126 39.8241 14.3891 39.6554 14.4148 39.7226C14.4826 39.9059 14.549 40.0905 14.6154 40.2751C14.6818 40.4598 14.7483 40.6447 14.816 40.8279C15.0654 41.5028 15.3094 42.1777 15.5534 42.8526C15.5822 42.933 15.6039 43.0213 15.6259 43.1112C15.6825 43.3423 15.7417 43.584 15.9329 43.7294C16.0522 43.8197 16.2094 43.8569 16.3558 43.8463C16.6594 43.8303 16.9955 43.6443 17.1528 43.384C17.2096 43.2885 17.2677 43.1917 17.3259 43.0949L17.3265 43.0939C17.3847 42.9972 17.443 42.9002 17.4998 42.8047C17.6427 42.5702 17.7835 42.3337 17.9248 42.0964C18.0141 41.9466 18.1035 41.7964 18.1937 41.6463C18.3739 41.3465 18.5532 41.0468 18.7324 40.7474C19.0168 40.272 19.3013 39.7963 19.5873 39.3237C19.9939 38.649 20.4004 37.9742 20.807 37.3048C20.8976 37.1504 20.991 36.9988 21.0852 36.8459C21.1207 36.7883 21.1563 36.7306 21.1919 36.6724L21.2039 36.6481L21.6326 35.9837C21.5684 36.0035 21.5099 36.0241 21.4212 36.0553C21.3606 36.0766 21.286 36.1028 21.1857 36.1372C20.9774 36.2086 20.6896 36.303 20.3745 36.3717C19.8228 36.492 18.6678 36.6524 17.6398 35.8714L17.6325 35.8658L17.6252 35.8602C17.1396 35.4841 16.8626 34.9734 16.7974 34.8531L16.7863 34.8328L16.7778 34.8179L16.7696 34.8029C16.5057 34.3202 16.2475 33.8546 15.9864 33.3836L15.9856 33.3821C15.7907 33.0306 15.5941 32.6761 15.3922 32.3092C15.2661 32.0815 15.1635 31.8884 15.0724 31.7169C14.948 31.4827 14.8448 31.2883 14.7325 31.1018ZM28.4323 36.0473L28.6562 36.4333C28.6984 36.4471 28.7648 36.5836 28.7961 36.6481L28.8081 36.6724C28.8434 36.7302 28.8788 36.7876 28.9141 36.8448L28.9148 36.846C29.009 36.9988 29.1024 37.1504 29.193 37.3048C29.5994 37.974 30.0058 38.6485 30.4122 39.323L30.4129 39.3241C30.6985 39.796 30.982 40.27 31.266 40.7447L31.2667 40.7457L31.2672 40.7467L31.268 40.748C31.447 41.0472 31.6262 41.3468 31.8063 41.6463C31.8965 41.7964 31.9859 41.9465 32.0751 42.0964C32.2164 42.3336 32.3574 42.5703 32.5002 42.8047C32.5571 42.9002 32.6153 42.9971 32.6735 43.0939C32.7318 43.1909 32.7903 43.2883 32.8472 43.384C33.0045 43.6443 33.3406 43.8303 33.6442 43.8463C33.7906 43.8569 33.9478 43.8197 34.0671 43.7294C34.2583 43.584 34.3175 43.3423 34.3741 43.1112C34.3961 43.0213 34.4178 42.933 34.4466 42.8526C34.6906 42.1777 34.9346 41.5028 35.184 40.8279C35.2518 40.6446 35.3182 40.46 35.3846 40.2753C35.451 40.0906 35.5174 39.906 35.5852 39.7226C35.6109 39.6554 36.874 39.8241 37.5033 39.9081C37.6699 39.9304 37.7921 39.9467 37.8352 39.9511C38.0902 39.977 38.3424 40.0177 38.5946 40.0584C38.9644 40.118 39.3339 40.1776 39.7111 40.1903C39.9171 40.1956 40.1503 40.1371 40.2587 39.9671C40.4847 39.6175 40.2082 39.0581 40.0326 38.7031C40.0187 38.6749 40.0054 38.648 39.993 38.6226C39.8275 38.2805 39.6166 37.9641 39.4063 37.6487C39.2997 37.4889 39.1933 37.3292 39.093 37.1666L36.8647 33.5159C36.6559 33.1739 36.1087 32.3427 35.5531 31.4987C35.393 31.2554 35.232 31.0109 35.0783 30.7769C34.785 31.4128 34.4707 32.0482 34.127 32.6785C34.1016 32.7258 34.0598 32.8092 34.0061 32.9163L34.0056 32.9173C33.8335 33.2604 33.5404 33.8449 33.2767 34.2596C32.898 34.8551 32.1978 35.7821 31.0127 36.1619C30.0331 36.4772 29.1523 36.2731 28.6206 36.1085C28.5571 36.0889 28.494 36.0682 28.4323 36.0473Z" fill="#0685CF"/>
</svg>
