<svg width="24" height="25" viewBox="0 0 24 25" fill="none" xmlns="http://www.w3.org/2000/svg">
<path d="M19.1429 2.92969H17.1021C16.6939 2.92969 16.2858 3.23383 16.2858 3.74074C16.2858 4.24764 16.5919 4.55178 17.1021 4.55178H19.1429C19.8572 4.55178 20.3674 5.16007 20.3674 5.76836V7.79598C20.3674 8.2015 20.6735 8.60703 21.1837 8.60703C21.6939 8.60703 22 8.30288 22 7.79598V5.76836C22 4.24764 20.6735 2.92969 19.1429 2.92969Z" fill="#848F92"/>
<path d="M21.1837 17.123C20.7756 17.123 20.3674 17.4272 20.3674 17.9341V19.9617C20.3674 20.6714 19.7551 21.1783 19.1429 21.1783H17.1021C16.6939 21.1783 16.2858 21.4824 16.2858 21.9893C16.2858 22.4962 16.5919 22.8004 17.1021 22.8004H19.1429C20.6735 22.8004 22 21.5838 22 19.9617V17.9341C22 17.5286 21.5919 17.123 21.1837 17.123Z" fill="#848F92"/>
<path d="M2.81637 8.60703C3.22454 8.60703 3.6327 8.30288 3.6327 7.79598V5.76836C3.6327 5.05869 4.24494 4.55178 4.85719 4.55178H6.89801C7.30617 4.55178 7.71433 4.24764 7.71433 3.74074C7.71433 3.23383 7.30617 2.92969 6.89801 2.92969H4.85719C3.32658 2.92969 2.00005 4.24764 2.00005 5.76836V7.79598C2.00005 8.2015 2.40821 8.60703 2.81637 8.60703Z" fill="#848F92"/>
<path d="M6.89801 21.1783H4.85719C4.1429 21.1783 3.6327 20.57 3.6327 19.9617V17.9341C3.6327 17.5286 3.32658 17.123 2.81637 17.123C2.30617 17.123 2.00005 17.5286 2.00005 17.9341V19.9617C2.00005 21.4824 3.22454 22.8004 4.85719 22.8004H6.89801C7.30617 22.8004 7.71433 22.4962 7.71433 21.9893C7.71433 21.4824 7.30617 21.1783 6.89801 21.1783Z" fill="#848F92"/>
<path d="M8.25 9.13672H9.67941V10.5514H8.25V9.13672ZM13.7445 11.9227H14.905V13.0714H13.7445V11.9227ZM11.4508 14.811H12.5566V15.9054H11.4508V14.811ZM16.0656 11.9227H18V13.0714H16.0656V11.9227ZM11.4508 16.9997H12.5566V18.8237H11.4508V16.9997Z" fill="#848F92"/>
<path d="M11.6 6.90234C11.8121 6.90235 12.0156 6.98606 12.1656 7.13508C12.2399 7.20886 12.2988 7.29646 12.3391 7.39289C12.3793 7.48931 12.4 7.59265 12.4 7.69703V12.4661C12.4 12.6769 12.3157 12.8791 12.1656 13.0281C12.0156 13.1772 11.8122 13.2609 11.6 13.261H6.80002C6.58786 13.2609 6.38441 13.1772 6.23441 13.0281C6.08437 12.8791 6.00005 12.6769 6 12.4661V7.69719C6 7.48639 6.08429 7.28421 6.23432 7.13515C6.38435 6.98609 6.58784 6.90234 6.80002 6.90234H11.6ZM11.5367 7.76004H6.86327V12.4031H11.5367V7.76004ZM9.60002 14.4532C9.81214 14.4533 10.0155 14.5372 10.1654 14.6863C10.3153 14.8354 10.3995 15.0376 10.3994 15.2483V18.0299C10.3993 18.2406 10.3151 18.4426 10.1652 18.5916C10.0153 18.7406 9.81205 18.8244 9.60002 18.8246H6.80002C6.58787 18.8246 6.38441 18.7409 6.23438 18.5918C6.08435 18.4428 6.00004 18.2407 6 18.0299V15.2483C6 15.0375 6.08429 14.8354 6.23432 14.6863C6.38435 14.5372 6.58784 14.4535 6.80002 14.4535L9.60002 14.4532ZM6.78027 15.2284V18.0489H9.61911V15.2284H6.78027ZM17.2 14.4532C17.3051 14.4532 17.4091 14.4738 17.5062 14.5138C17.6032 14.5537 17.6914 14.6123 17.7657 14.6861C17.84 14.76 17.8989 14.8476 17.939 14.9441C17.9792 15.0406 17.9999 15.144 17.9998 15.2483V18.0299C17.9998 18.2407 17.9155 18.4429 17.7655 18.592C17.6155 18.741 17.412 18.8248 17.1998 18.8248H14.4003C14.1881 18.8248 13.9846 18.741 13.8346 18.592C13.6846 18.4429 13.6003 18.2407 13.6003 18.0299V15.2483C13.6002 15.1439 13.6209 15.0405 13.6611 14.9441C13.7013 14.8476 13.7602 14.7599 13.8345 14.6861C13.9088 14.6122 13.997 14.5537 14.0941 14.5137C14.1912 14.4737 14.2952 14.4532 14.4003 14.4532H17.2ZM17.2 15.2483H14.4003V18.0294H17.1995L17.2 15.2483ZM17.2 6.90234C17.4122 6.90234 17.6156 6.98609 17.7657 7.13515C17.9157 7.28421 18 7.48639 18 7.69719V10.4791C17.9998 10.6898 17.9155 10.8918 17.7654 11.0407C17.6154 11.1896 17.412 11.2733 17.2 11.2733H14.4003C14.1882 11.2734 13.9847 11.1897 13.8346 11.0408C13.6845 10.8919 13.6001 10.6898 13.6 10.4791V7.69719C13.6 7.59278 13.6207 7.4894 13.6609 7.39294C13.7011 7.29648 13.7601 7.20885 13.8344 7.13503C13.9087 7.06122 13.997 7.00268 14.0941 6.96275C14.1912 6.92283 14.2952 6.9023 14.4003 6.90234H17.2ZM17.2011 7.69587H14.3987V10.4802H17.2011V7.69587Z" fill="#848F92"/>
</svg>
