<svg width="22" height="26" viewBox="0 0 22 26" fill="none" xmlns="http://www.w3.org/2000/svg">
<path d="M11.0586 5.05885C11.4736 5.05885 12.4596 5.32129 12.4596 5.32129C15.1309 5.93342 17.0111 8.39389 17.0111 11.1719V18.2363C17.0111 18.5007 17.1158 18.7543 17.3023 18.9418L17.5572 19.1978C17.726 19.3673 17.6059 19.6562 17.3668 19.6562H4.63324C4.39409 19.6562 4.27405 19.3673 4.44277 19.1978L4.69766 18.9418C4.8842 18.7543 4.98893 18.5007 4.98893 18.2363V11.1719C4.98893 8.39395 6.86914 5.93342 9.54037 5.32129C9.54037 5.32129 10.5976 5.05885 10.9414 5.05885H11.0586ZM11 0.8125C9.96863 0.8125 9.18014 1.60457 9.18014 2.64062V3.49369C5.72223 4.28606 3.11393 7.45469 3.11393 11.1719V17.875L0.938763 20.0601C0.777843 20.2217 0.6875 20.4406 0.6875 20.6687C0.6875 21.1451 1.0737 21.5313 1.5501 21.5313H20.4499C20.9263 21.5313 21.3125 21.1451 21.3125 20.6687C21.3125 20.4406 21.2222 20.2217 21.0612 20.0601L18.8861 17.875V11.1719C18.8861 7.45469 16.2777 4.28606 12.8199 3.49369V2.64062C12.8199 1.60457 12.0314 0.8125 11 0.8125ZM13.4264 22.75H8.57352C8.57352 24.0907 9.66529 25.1875 11 25.1875C12.3347 25.1875 13.4264 24.0907 13.4264 22.75Z" fill="white"/>
</svg>
